# MagicaVoxel @ Ephtracy

# group
o 

# material
mtllib verstak.mtl
usemtl palette

# normals
vn -1 0 0
vn 1 0 0
vn 0 0 1
vn 0 0 -1
vn 0 -1 0
vn 0 1 0

# texcoords
vt 0.228516 0.5
vt 0.232422 0.5
vt 0.373047 0.5
vt 0.873047 0.5
vt 0.958984 0.5
vt 0.962891 0.5

# verts
v 0 2 0
v 0 2 -0.1
v 0 2 -0.9
v 0 2 -1
v 0 2.5 -0.1
v 0 2.5 -0.9
v 0 2.7 0
v 0 2.7 -1
v 0.1 2.7 -0.1
v 0.1 2.7 -0.2
v 0.1 2.8 -0.1
v 0.1 2.8 -0.2
v 0.3 2.7 -0.7
v 0.3 2.7 -0.8
v 0.3 2.8 -0.7
v 0.3 2.8 -0.8
v 0.4 2.7 -0.4
v 0.4 2.7 -0.7
v 0.4 2.8 -0.4
v 0.4 2.8 -0.7
v 0.5 2.7 -0.2
v 0.5 2.7 -0.3
v 0.5 2.8 -0.2
v 0.5 2.8 -0.3
v 0.6 2.7 -0.1
v 0.6 2.7 -0.2
v 0.6 2.8 -0.1
v 0.6 2.8 -0.2
v 0.7 2.7 0
v 0.7 2.7 -0.1
v 0.7 2.7 -0.6
v 0.7 2.7 -0.7
v 0.7 2.7 -0.8
v 0.7 2.7 -0.9
v 0.7 2.8 0
v 0.7 2.8 -0.1
v 0.7 2.8 -0.6
v 0.7 2.8 -0.7
v 0.7 2.8 -0.8
v 0.7 2.8 -0.9
v 0.8 2.7 -0.1
v 0.8 2.7 -0.2
v 0.8 2.7 -0.4
v 0.8 2.7 -0.6
v 0.8 2.7 -0.7
v 0.8 2.7 -0.8
v 0.8 2.8 -0.1
v 0.8 2.8 -0.2
v 0.8 2.8 -0.4
v 0.8 2.8 -0.6
v 0.8 2.8 -0.7
v 0.8 2.8 -0.8
v 0.9 2.7 -0.2
v 0.9 2.7 -0.3
v 0.9 2.7 -0.8
v 0.9 2.7 -0.9
v 0.9 2.8 -0.2
v 0.9 2.8 -0.3
v 0.9 2.8 -0.8
v 0.9 2.8 -0.9
v 1.9 2 0
v 1.9 2 -0.1
v 1.9 2 -0.9
v 1.9 2 -1
v 1.9 2.6 0
v 1.9 2.6 -0.1
v 1.9 2.6 -0.9
v 1.9 2.6 -1
v 0.1 2 0
v 0.1 2 -0.1
v 0.1 2 -0.9
v 0.1 2 -1
v 0.1 2.5 -0.1
v 0.1 2.5 -0.9
v 0.1 2.6 0
v 0.1 2.6 -1
v 0.5 2.7 -0.1
v 0.5 2.7 -0.2
v 0.5 2.7 -0.4
v 0.5 2.7 -0.7
v 0.5 2.8 -0.1
v 0.5 2.8 -0.2
v 0.5 2.8 -0.4
v 0.5 2.8 -0.7
v 0.6 2.7 -0.2
v 0.6 2.7 -0.3
v 0.6 2.7 -0.7
v 0.6 2.7 -0.8
v 0.6 2.8 -0.2
v 0.6 2.8 -0.3
v 0.6 2.8 -0.7
v 0.6 2.8 -0.8
v 0.7 2.7 -0.1
v 0.7 2.7 -0.2
v 0.7 2.8 -0.1
v 0.7 2.8 -0.2
v 0.8 2.7 0
v 0.8 2.7 -0.1
v 0.8 2.7 -0.8
v 0.8 2.7 -0.9
v 0.8 2.8 0
v 0.8 2.8 -0.1
v 0.8 2.8 -0.8
v 0.8 2.8 -0.9
v 0.9 2.7 -0.1
v 0.9 2.7 -0.2
v 0.9 2.7 -0.4
v 0.9 2.7 -0.6
v 0.9 2.7 -0.7
v 0.9 2.7 -0.8
v 0.9 2.8 -0.1
v 0.9 2.8 -0.2
v 0.9 2.8 -0.4
v 0.9 2.8 -0.6
v 0.9 2.8 -0.7
v 0.9 2.8 -0.8
v 1 2.7 -0.2
v 1 2.7 -0.3
v 1 2.7 -0.6
v 1 2.7 -0.7
v 1 2.7 -0.8
v 1 2.7 -0.9
v 1 2.8 -0.2
v 1 2.8 -0.3
v 1 2.8 -0.6
v 1 2.8 -0.7
v 1 2.8 -0.8
v 1 2.8 -0.9
v 2 2 0
v 2 2 -0.1
v 2 2 -0.9
v 2 2 -1
v 2 2.6 -0.1
v 2 2.6 -0.9
v 2 2.7 0
v 2 2.7 -1
v 0 2 0
v 0 2.7 0
v 0.1 2 0
v 0.1 2.6 0
v 0.7 2.7 0
v 0.7 2.8 0
v 0.8 2.7 0
v 0.8 2.8 0
v 1.9 2 0
v 1.9 2.6 0
v 2 2 0
v 2 2.7 0
v 0.1 2.7 -0.1
v 0.1 2.8 -0.1
v 0.4 2.7 -0.1
v 0.4 2.8 -0.1
v 0.5 2.7 -0.1
v 0.5 2.8 -0.1
v 0.6 2.7 -0.1
v 0.6 2.8 -0.1
v 0.7 2.7 -0.1
v 0.7 2.8 -0.1
v 0.8 2.7 -0.1
v 0.8 2.8 -0.1
v 0.9 2.7 -0.1
v 0.9 2.8 -0.1
v 0.5 2.7 -0.2
v 0.5 2.8 -0.2
v 0.6 2.7 -0.2
v 0.6 2.8 -0.2
v 0.9 2.7 -0.2
v 0.9 2.8 -0.2
v 1 2.7 -0.2
v 1 2.8 -0.2
v 0.4 2.7 -0.4
v 0.4 2.8 -0.4
v 0.5 2.7 -0.4
v 0.5 2.8 -0.4
v 0.8 2.7 -0.4
v 0.8 2.8 -0.4
v 0.9 2.7 -0.4
v 0.9 2.8 -0.4
v 0.7 2.7 -0.6
v 0.7 2.8 -0.6
v 0.8 2.7 -0.6
v 0.8 2.8 -0.6
v 0.9 2.7 -0.6
v 0.9 2.8 -0.6
v 1 2.7 -0.6
v 1 2.8 -0.6
v 0.3 2.7 -0.7
v 0.3 2.8 -0.7
v 0.4 2.7 -0.7
v 0.4 2.8 -0.7
v 0.5 2.7 -0.7
v 0.5 2.8 -0.7
v 0.6 2.7 -0.7
v 0.6 2.8 -0.7
v 0.7 2.7 -0.8
v 0.7 2.8 -0.8
v 0.8 2.7 -0.8
v 0.8 2.8 -0.8
v 0.9 2.7 -0.8
v 0.9 2.8 -0.8
v 1 2.7 -0.8
v 1 2.8 -0.8
v 0 2 -0.9
v 0 2.5 -0.9
v 0.1 2 -0.9
v 0.1 2.5 -0.9
v 1.9 2 -0.9
v 1.9 2.6 -0.9
v 2 2 -0.9
v 2 2.6 -0.9
v 0 2 -0.1
v 0 2.5 -0.1
v 0.1 2 -0.1
v 0.1 2.5 -0.1
v 0.7 2.7 -0.1
v 0.7 2.8 -0.1
v 0.8 2.7 -0.1
v 0.8 2.8 -0.1
v 1.9 2 -0.1
v 1.9 2.6 -0.1
v 2 2 -0.1
v 2 2.6 -0.1
v 0.1 2.7 -0.2
v 0.1 2.8 -0.2
v 0.4 2.7 -0.2
v 0.4 2.8 -0.2
v 0.5 2.7 -0.2
v 0.5 2.8 -0.2
v 0.6 2.7 -0.2
v 0.6 2.8 -0.2
v 0.7 2.7 -0.2
v 0.7 2.8 -0.2
v 0.8 2.7 -0.2
v 0.8 2.8 -0.2
v 0.9 2.7 -0.2
v 0.9 2.8 -0.2
v 0.5 2.7 -0.3
v 0.5 2.8 -0.3
v 0.6 2.7 -0.3
v 0.6 2.8 -0.3
v 0.9 2.7 -0.3
v 0.9 2.8 -0.3
v 1 2.7 -0.3
v 1 2.8 -0.3
v 0.7 2.7 -0.7
v 0.7 2.8 -0.7
v 0.8 2.7 -0.7
v 0.8 2.8 -0.7
v 0.9 2.7 -0.7
v 0.9 2.8 -0.7
v 1 2.7 -0.7
v 1 2.8 -0.7
v 0.3 2.7 -0.8
v 0.3 2.8 -0.8
v 0.6 2.7 -0.8
v 0.6 2.8 -0.8
v 0.8 2.7 -0.8
v 0.8 2.8 -0.8
v 0.9 2.7 -0.8
v 0.9 2.8 -0.8
v 0.7 2.7 -0.9
v 0.7 2.8 -0.9
v 0.8 2.7 -0.9
v 0.8 2.8 -0.9
v 0.9 2.7 -0.9
v 0.9 2.8 -0.9
v 1 2.7 -0.9
v 1 2.8 -0.9
v 0 2 -1
v 0 2.7 -1
v 0.1 2 -1
v 0.1 2.6 -1
v 1.9 2 -1
v 1.9 2.6 -1
v 2 2 -1
v 2 2.7 -1
v 0 2 0
v 0.1 2 0
v 1.9 2 0
v 2 2 0
v 0 2 -0.1
v 0.1 2 -0.1
v 1.9 2 -0.1
v 2 2 -0.1
v 0 2 -0.9
v 0.1 2 -0.9
v 1.9 2 -0.9
v 2 2 -0.9
v 0 2 -1
v 0.1 2 -1
v 1.9 2 -1
v 2 2 -1
v 0 2.5 -0.1
v 0.1 2.5 -0.1
v 0 2.5 -0.9
v 0.1 2.5 -0.9
v 0.1 2.6 0
v 1.9 2.6 0
v 1.1 2.6 -0.1
v 1.9 2.6 -0.1
v 2 2.6 -0.1
v 1.3 2.6 -0.2
v 1.4 2.6 -0.2
v 1.6 2.6 -0.2
v 1.7 2.6 -0.2
v 1.2 2.6 -0.3
v 1.3 2.6 -0.3
v 1.4 2.6 -0.3
v 1.6 2.6 -0.3
v 1.7 2.6 -0.3
v 1.8 2.6 -0.3
v 1.2 2.6 -0.4
v 1.3 2.6 -0.4
v 1.4 2.6 -0.4
v 1.6 2.6 -0.4
v 1.7 2.6 -0.4
v 1.8 2.6 -0.4
v 1.2 2.6 -0.6
v 1.3 2.6 -0.6
v 1.4 2.6 -0.6
v 1.6 2.6 -0.6
v 1.7 2.6 -0.6
v 1.8 2.6 -0.6
v 1.2 2.6 -0.7
v 1.3 2.6 -0.7
v 1.4 2.6 -0.7
v 1.6 2.6 -0.7
v 1.7 2.6 -0.7
v 1.8 2.6 -0.7
v 1.3 2.6 -0.8
v 1.4 2.6 -0.8
v 1.6 2.6 -0.8
v 1.7 2.6 -0.8
v 1.1 2.6 -0.9
v 1.9 2.6 -0.9
v 2 2.6 -0.9
v 0.1 2.6 -1
v 1.9 2.6 -1
v 0 2.7 0
v 0.7 2.7 0
v 0.8 2.7 0
v 2 2.7 0
v 0.1 2.7 -0.1
v 0.4 2.7 -0.1
v 0.5 2.7 -0.1
v 0.6 2.7 -0.1
v 0.7 2.7 -0.1
v 0.8 2.7 -0.1
v 0.9 2.7 -0.1
v 1.1 2.7 -0.1
v 1.9 2.7 -0.1
v 0.1 2.7 -0.2
v 0.4 2.7 -0.2
v 0.5 2.7 -0.2
v 0.6 2.7 -0.2
v 0.7 2.7 -0.2
v 0.8 2.7 -0.2
v 0.9 2.7 -0.2
v 1 2.7 -0.2
v 1.3 2.7 -0.2
v 1.4 2.7 -0.2
v 1.6 2.7 -0.2
v 1.7 2.7 -0.2
v 0.5 2.7 -0.3
v 0.6 2.7 -0.3
v 0.9 2.7 -0.3
v 1 2.7 -0.3
v 1.2 2.7 -0.3
v 1.3 2.7 -0.3
v 1.4 2.7 -0.3
v 1.6 2.7 -0.3
v 1.7 2.7 -0.3
v 1.8 2.7 -0.3
v 0.4 2.7 -0.4
v 0.5 2.7 -0.4
v 0.8 2.7 -0.4
v 0.9 2.7 -0.4
v 1.2 2.7 -0.4
v 1.3 2.7 -0.4
v 1.4 2.7 -0.4
v 1.6 2.7 -0.4
v 1.7 2.7 -0.4
v 1.8 2.7 -0.4
v 0.7 2.7 -0.6
v 0.8 2.7 -0.6
v 0.9 2.7 -0.6
v 1 2.7 -0.6
v 1.2 2.7 -0.6
v 1.3 2.7 -0.6
v 1.4 2.7 -0.6
v 1.6 2.7 -0.6
v 1.7 2.7 -0.6
v 1.8 2.7 -0.6
v 0.3 2.7 -0.7
v 0.4 2.7 -0.7
v 0.5 2.7 -0.7
v 0.6 2.7 -0.7
v 0.7 2.7 -0.7
v 0.8 2.7 -0.7
v 0.9 2.7 -0.7
v 1 2.7 -0.7
v 1.2 2.7 -0.7
v 1.3 2.7 -0.7
v 1.4 2.7 -0.7
v 1.6 2.7 -0.7
v 1.7 2.7 -0.7
v 1.8 2.7 -0.7
v 0.3 2.7 -0.8
v 0.6 2.7 -0.8
v 0.7 2.7 -0.8
v 0.8 2.7 -0.8
v 0.9 2.7 -0.8
v 1 2.7 -0.8
v 1.3 2.7 -0.8
v 1.4 2.7 -0.8
v 1.6 2.7 -0.8
v 1.7 2.7 -0.8
v 0.7 2.7 -0.9
v 0.8 2.7 -0.9
v 0.9 2.7 -0.9
v 1 2.7 -0.9
v 1.1 2.7 -0.9
v 1.9 2.7 -0.9
v 0 2.7 -1
v 2 2.7 -1
v 0.7 2.8 0
v 0.8 2.8 0
v 0.1 2.8 -0.1
v 0.4 2.8 -0.1
v 0.5 2.8 -0.1
v 0.6 2.8 -0.1
v 0.7 2.8 -0.1
v 0.8 2.8 -0.1
v 0.9 2.8 -0.1
v 0.1 2.8 -0.2
v 0.4 2.8 -0.2
v 0.5 2.8 -0.2
v 0.6 2.8 -0.2
v 0.7 2.8 -0.2
v 0.8 2.8 -0.2
v 0.9 2.8 -0.2
v 1 2.8 -0.2
v 0.5 2.8 -0.3
v 0.6 2.8 -0.3
v 0.9 2.8 -0.3
v 1 2.8 -0.3
v 0.4 2.8 -0.4
v 0.5 2.8 -0.4
v 0.8 2.8 -0.4
v 0.9 2.8 -0.4
v 0.7 2.8 -0.6
v 0.8 2.8 -0.6
v 0.9 2.8 -0.6
v 1 2.8 -0.6
v 0.3 2.8 -0.7
v 0.4 2.8 -0.7
v 0.5 2.8 -0.7
v 0.6 2.8 -0.7
v 0.7 2.8 -0.7
v 0.8 2.8 -0.7
v 0.9 2.8 -0.7
v 1 2.8 -0.7
v 0.3 2.8 -0.8
v 0.6 2.8 -0.8
v 0.7 2.8 -0.8
v 0.8 2.8 -0.8
v 0.9 2.8 -0.8
v 1 2.8 -0.8
v 0.7 2.8 -0.9
v 0.8 2.8 -0.9
v 0.9 2.8 -0.9
v 1 2.8 -0.9

# faces
f 5/2/1 2/2/1 1/2/1
f 6/2/1 4/2/1 3/2/1
f 7/2/1 5/2/1 1/2/1
f 7/2/1 6/2/1 5/2/1
f 8/2/1 4/2/1 6/2/1
f 8/2/1 6/2/1 7/2/1
f 11/3/1 10/3/1 9/3/1
f 12/3/1 10/3/1 11/3/1
f 15/5/1 14/5/1 13/5/1
f 16/5/1 14/5/1 15/5/1
f 19/3/1 18/3/1 17/3/1
f 20/3/1 18/3/1 19/3/1
f 23/5/1 22/5/1 21/5/1
f 24/5/1 22/5/1 23/5/1
f 27/5/1 26/5/1 25/5/1
f 28/5/1 26/5/1 27/5/1
f 35/5/1 30/5/1 29/5/1
f 36/5/1 30/5/1 35/5/1
f 37/6/1 32/6/1 31/6/1
f 38/6/1 32/6/1 37/6/1
f 39/6/1 34/6/1 33/6/1
f 40/6/1 34/6/1 39/6/1
f 47/5/1 42/5/1 41/5/1
f 48/5/1 42/5/1 47/5/1
f 49/3/1 44/3/1 43/3/1
f 50/3/1 44/3/1 49/3/1
f 51/6/1 46/6/1 45/6/1
f 52/6/1 46/6/1 51/6/1
f 57/5/1 54/5/1 53/5/1
f 58/5/1 54/5/1 57/5/1
f 59/6/1 56/6/1 55/6/1
f 60/6/1 56/6/1 59/6/1
f 65/2/1 62/2/1 61/2/1
f 66/2/1 62/2/1 65/2/1
f 67/2/1 64/2/1 63/2/1
f 68/2/1 64/2/1 67/2/1
f 69/2/2 70/2/2 73/2/2
f 71/2/2 72/2/2 74/2/2
f 69/2/2 73/2/2 75/2/2
f 73/2/2 74/2/2 75/2/2
f 74/2/2 72/2/2 76/2/2
f 75/2/2 74/2/2 76/2/2
f 77/5/2 78/5/2 81/5/2
f 81/5/2 78/5/2 82/5/2
f 79/3/2 80/3/2 83/3/2
f 83/3/2 80/3/2 84/3/2
f 85/5/2 86/5/2 89/5/2
f 89/5/2 86/5/2 90/5/2
f 87/5/2 88/5/2 91/5/2
f 91/5/2 88/5/2 92/5/2
f 93/5/2 94/5/2 95/5/2
f 95/5/2 94/5/2 96/5/2
f 97/5/2 98/5/2 101/5/2
f 101/5/2 98/5/2 102/5/2
f 99/6/2 100/6/2 103/6/2
f 103/6/2 100/6/2 104/6/2
f 105/5/2 106/5/2 111/5/2
f 111/5/2 106/5/2 112/5/2
f 107/3/2 108/3/2 113/3/2
f 113/3/2 108/3/2 114/3/2
f 109/6/2 110/6/2 115/6/2
f 115/6/2 110/6/2 116/6/2
f 117/5/2 118/5/2 123/5/2
f 123/5/2 118/5/2 124/5/2
f 119/6/2 120/6/2 125/6/2
f 125/6/2 120/6/2 126/6/2
f 121/6/2 122/6/2 127/6/2
f 127/6/2 122/6/2 128/6/2
f 129/2/2 130/2/2 133/2/2
f 131/2/2 132/2/2 134/2/2
f 129/2/2 133/2/2 135/2/2
f 133/2/2 134/2/2 135/2/2
f 134/2/2 132/2/2 136/2/2
f 135/2/2 134/2/2 136/2/2
f 139/2/3 138/2/3 137/2/3
f 140/2/3 138/2/3 139/2/3
f 141/2/3 138/2/3 140/2/3
f 143/2/3 141/2/3 140/2/3
f 143/5/3 142/5/3 141/5/3
f 144/5/3 142/5/3 143/5/3
f 146/2/3 143/2/3 140/2/3
f 147/2/3 146/2/3 145/2/3
f 148/2/3 143/2/3 146/2/3
f 148/2/3 146/2/3 147/2/3
f 151/3/3 150/3/3 149/3/3
f 152/3/3 150/3/3 151/3/3
f 153/5/3 152/5/3 151/5/3
f 154/5/3 152/5/3 153/5/3
f 157/5/3 156/5/3 155/5/3
f 158/5/3 156/5/3 157/5/3
f 161/5/3 160/5/3 159/5/3
f 162/5/3 160/5/3 161/5/3
f 165/5/3 164/5/3 163/5/3
f 166/5/3 164/5/3 165/5/3
f 169/5/3 168/5/3 167/5/3
f 170/5/3 168/5/3 169/5/3
f 173/3/3 172/3/3 171/3/3
f 174/3/3 172/3/3 173/3/3
f 177/3/3 176/3/3 175/3/3
f 178/3/3 176/3/3 177/3/3
f 181/6/3 180/6/3 179/6/3
f 182/6/3 180/6/3 181/6/3
f 185/6/3 184/6/3 183/6/3
f 186/6/3 184/6/3 185/6/3
f 189/5/3 188/5/3 187/5/3
f 190/5/3 188/5/3 189/5/3
f 193/5/3 192/5/3 191/5/3
f 194/5/3 192/5/3 193/5/3
f 197/6/3 196/6/3 195/6/3
f 198/6/3 196/6/3 197/6/3
f 201/6/3 200/6/3 199/6/3
f 202/6/3 200/6/3 201/6/3
f 205/2/3 204/2/3 203/2/3
f 206/2/3 204/2/3 205/2/3
f 209/2/3 208/2/3 207/2/3
f 210/2/3 208/2/3 209/2/3
f 211/2/4 212/2/4 213/2/4
f 213/2/4 212/2/4 214/2/4
f 215/5/4 216/5/4 217/5/4
f 217/5/4 216/5/4 218/5/4
f 219/2/4 220/2/4 221/2/4
f 221/2/4 220/2/4 222/2/4
f 223/3/4 224/3/4 225/3/4
f 225/3/4 224/3/4 226/3/4
f 225/5/4 226/5/4 227/5/4
f 227/5/4 226/5/4 228/5/4
f 229/5/4 230/5/4 231/5/4
f 231/5/4 230/5/4 232/5/4
f 233/5/4 234/5/4 235/5/4
f 235/5/4 234/5/4 236/5/4
f 237/5/4 238/5/4 239/5/4
f 239/5/4 238/5/4 240/5/4
f 241/5/4 242/5/4 243/5/4
f 243/5/4 242/5/4 244/5/4
f 245/6/4 246/6/4 247/6/4
f 247/6/4 246/6/4 248/6/4
f 249/6/4 250/6/4 251/6/4
f 251/6/4 250/6/4 252/6/4
f 253/5/4 254/5/4 255/5/4
f 255/5/4 254/5/4 256/5/4
f 257/6/4 258/6/4 259/6/4
f 259/6/4 258/6/4 260/6/4
f 261/6/4 262/6/4 263/6/4
f 263/6/4 262/6/4 264/6/4
f 265/6/4 266/6/4 267/6/4
f 267/6/4 266/6/4 268/6/4
f 269/2/4 270/2/4 271/2/4
f 271/2/4 270/2/4 272/2/4
f 272/2/4 270/2/4 274/2/4
f 273/2/4 274/2/4 275/2/4
f 274/2/4 270/2/4 276/2/4
f 275/2/4 274/2/4 276/2/4
f 281/2/5 278/2/5 277/2/5
f 282/2/5 278/2/5 281/2/5
f 283/2/5 280/2/5 279/2/5
f 284/2/5 280/2/5 283/2/5
f 289/2/5 286/2/5 285/2/5
f 290/2/5 286/2/5 289/2/5
f 291/2/5 288/2/5 287/2/5
f 292/2/5 288/2/5 291/2/5
f 295/2/5 294/2/5 293/2/5
f 296/2/5 294/2/5 295/2/5
f 299/2/5 298/2/5 297/2/5
f 300/2/5 298/2/5 299/2/5
f 302/4/5 300/4/5 299/4/5
f 303/4/5 300/4/5 302/4/5
f 304/4/5 300/4/5 303/4/5
f 305/4/5 300/4/5 304/4/5
f 306/4/5 302/4/5 299/4/5
f 307/1/5 303/1/5 302/1/5
f 307/4/5 302/4/5 306/4/5
f 308/4/5 304/4/5 303/4/5
f 308/1/5 303/1/5 307/1/5
f 309/1/5 305/1/5 304/1/5
f 309/4/5 304/4/5 308/4/5
f 310/4/5 300/4/5 305/4/5
f 310/1/5 305/1/5 309/1/5
f 311/4/5 300/4/5 310/4/5
f 312/4/5 306/4/5 299/4/5
f 312/1/5 307/1/5 306/1/5
f 313/4/5 308/4/5 307/4/5
f 313/1/5 307/1/5 312/1/5
f 314/1/5 309/1/5 308/1/5
f 314/4/5 308/4/5 313/4/5
f 315/4/5 310/4/5 309/4/5
f 315/1/5 309/1/5 314/1/5
f 316/1/5 311/1/5 310/1/5
f 316/4/5 310/4/5 315/4/5
f 317/4/5 300/4/5 311/4/5
f 317/1/5 311/1/5 316/1/5
f 318/4/5 313/4/5 312/4/5
f 318/4/5 312/4/5 299/4/5
f 319/1/5 314/1/5 313/1/5
f 319/4/5 313/4/5 318/4/5
f 320/4/5 315/4/5 314/4/5
f 320/1/5 314/1/5 319/1/5
f 321/1/5 316/1/5 315/1/5
f 321/4/5 315/4/5 320/4/5
f 322/4/5 317/4/5 316/4/5
f 322/1/5 316/1/5 321/1/5
f 323/4/5 300/4/5 317/4/5
f 323/4/5 317/4/5 322/4/5
f 324/1/5 319/1/5 318/1/5
f 324/4/5 318/4/5 299/4/5
f 325/4/5 320/4/5 319/4/5
f 325/1/5 319/1/5 324/1/5
f 326/1/5 321/1/5 320/1/5
f 326/4/5 320/4/5 325/4/5
f 327/4/5 322/4/5 321/4/5
f 327/1/5 321/1/5 326/1/5
f 328/1/5 323/1/5 322/1/5
f 328/4/5 322/4/5 327/4/5
f 329/4/5 300/4/5 323/4/5
f 329/1/5 323/1/5 328/1/5
f 330/1/5 326/1/5 325/1/5
f 330/4/5 325/4/5 324/4/5
f 331/4/5 327/4/5 326/4/5
f 331/1/5 326/1/5 330/1/5
f 332/1/5 328/1/5 327/1/5
f 332/4/5 327/4/5 331/4/5
f 333/4/5 329/4/5 328/4/5
f 333/1/5 328/1/5 332/1/5
f 334/2/5 299/2/5 297/2/5
f 334/4/5 324/4/5 299/4/5
f 334/4/5 333/4/5 332/4/5
f 334/4/5 330/4/5 324/4/5
f 334/4/5 332/4/5 331/4/5
f 334/4/5 331/4/5 330/4/5
f 335/4/5 329/4/5 333/4/5
f 335/4/5 333/4/5 334/4/5
f 335/2/5 301/2/5 300/2/5
f 335/4/5 300/4/5 329/4/5
f 336/2/5 301/2/5 335/2/5
f 337/2/5 334/2/5 297/2/5
f 337/2/5 335/2/5 334/2/5
f 338/2/5 335/2/5 337/2/5
f 339/2/6 340/2/6 343/2/6
f 343/2/6 340/2/6 344/2/6
f 344/2/6 340/2/6 345/2/6
f 345/2/6 340/2/6 346/2/6
f 346/2/6 340/2/6 347/2/6
f 341/2/6 342/2/6 348/2/6
f 348/2/6 342/2/6 349/2/6
f 349/2/6 342/2/6 350/2/6
f 350/2/6 342/2/6 351/2/6
f 339/2/6 343/2/6 352/2/6
f 345/2/6 346/2/6 354/2/6
f 354/2/6 346/2/6 355/2/6
f 347/2/6 348/2/6 356/2/6
f 356/2/6 348/2/6 357/2/6
f 349/2/6 350/2/6 358/2/6
f 358/2/6 350/2/6 359/2/6
f 350/4/6 351/4/6 360/4/6
f 360/4/6 351/4/6 361/4/6
f 361/4/6 351/4/6 362/4/6
f 362/4/6 351/4/6 363/4/6
f 352/2/6 353/2/6 364/2/6
f 353/2/6 354/2/6 364/2/6
f 356/2/6 357/2/6 365/2/6
f 355/2/6 356/2/6 365/2/6
f 357/2/6 358/2/6 365/2/6
f 365/2/6 358/2/6 366/2/6
f 359/2/6 350/2/6 367/2/6
f 350/4/6 360/4/6 368/4/6
f 360/1/6 361/1/6 369/1/6
f 368/4/6 360/4/6 369/4/6
f 361/4/6 362/4/6 370/4/6
f 369/1/6 361/1/6 370/1/6
f 362/1/6 363/1/6 371/1/6
f 370/4/6 362/4/6 371/4/6
f 363/4/6 351/4/6 372/4/6
f 371/1/6 363/1/6 372/1/6
f 372/4/6 351/4/6 373/4/6
f 365/2/6 366/2/6 374/2/6
f 352/2/6 364/2/6 374/2/6
f 366/2/6 367/2/6 374/2/6
f 364/2/6 365/2/6 374/2/6
f 374/2/6 367/2/6 375/2/6
f 375/2/6 367/2/6 376/2/6
f 376/2/6 367/2/6 377/2/6
f 368/1/6 369/1/6 378/1/6
f 350/4/6 368/4/6 378/4/6
f 369/4/6 370/4/6 379/4/6
f 378/1/6 369/1/6 379/1/6
f 370/1/6 371/1/6 380/1/6
f 379/4/6 370/4/6 380/4/6
f 371/4/6 372/4/6 381/4/6
f 380/1/6 371/1/6 381/1/6
f 372/1/6 373/1/6 382/1/6
f 381/4/6 372/4/6 382/4/6
f 373/4/6 351/4/6 383/4/6
f 382/1/6 373/1/6 383/1/6
f 375/2/6 376/2/6 384/2/6
f 384/2/6 376/2/6 385/2/6
f 377/2/6 367/2/6 386/2/6
f 367/2/6 350/2/6 387/2/6
f 386/2/6 367/2/6 387/2/6
f 378/4/6 379/4/6 388/4/6
f 350/4/6 378/4/6 388/4/6
f 379/1/6 380/1/6 389/1/6
f 388/4/6 379/4/6 389/4/6
f 380/4/6 381/4/6 390/4/6
f 389/1/6 380/1/6 390/1/6
f 381/1/6 382/1/6 391/1/6
f 390/4/6 381/4/6 391/4/6
f 382/4/6 383/4/6 392/4/6
f 391/1/6 382/1/6 392/1/6
f 383/4/6 351/4/6 393/4/6
f 392/4/6 383/4/6 393/4/6
f 352/2/6 374/2/6 394/2/6
f 394/2/6 374/2/6 395/2/6
f 375/2/6 384/2/6 396/2/6
f 396/2/6 384/2/6 397/2/6
f 397/2/6 384/2/6 398/2/6
f 387/2/6 350/2/6 401/2/6
f 388/1/6 389/1/6 402/1/6
f 350/4/6 388/4/6 402/4/6
f 389/4/6 390/4/6 403/4/6
f 402/1/6 389/1/6 403/1/6
f 390/1/6 391/1/6 404/1/6
f 403/4/6 390/4/6 404/4/6
f 391/4/6 392/4/6 405/4/6
f 404/1/6 391/1/6 405/1/6
f 392/1/6 393/1/6 406/1/6
f 405/4/6 392/4/6 406/4/6
f 393/4/6 351/4/6 407/4/6
f 406/1/6 393/1/6 407/1/6
f 352/2/6 394/2/6 408/2/6
f 398/2/6 399/2/6 409/2/6
f 397/2/6 398/2/6 409/2/6
f 409/2/6 399/2/6 410/2/6
f 410/2/6 399/2/6 411/2/6
f 400/2/6 401/2/6 412/2/6
f 401/2/6 350/2/6 413/2/6
f 412/2/6 401/2/6 413/2/6
f 403/1/6 404/1/6 414/1/6
f 402/4/6 403/4/6 414/4/6
f 404/4/6 405/4/6 415/4/6
f 414/1/6 404/1/6 415/1/6
f 405/1/6 406/1/6 416/1/6
f 415/4/6 405/4/6 416/4/6
f 406/4/6 407/4/6 417/4/6
f 416/1/6 406/1/6 417/1/6
f 408/2/6 409/2/6 418/2/6
f 409/2/6 410/2/6 418/2/6
f 411/2/6 412/2/6 419/2/6
f 419/2/6 412/2/6 420/2/6
f 413/2/6 350/2/6 421/2/6
f 350/4/6 402/4/6 422/4/6
f 414/4/6 415/4/6 422/4/6
f 421/2/6 350/2/6 422/2/6
f 402/4/6 414/4/6 422/4/6
f 416/4/6 417/4/6 422/4/6
f 415/4/6 416/4/6 422/4/6
f 351/2/6 342/2/6 423/2/6
f 422/4/6 417/4/6 423/4/6
f 417/4/6 407/4/6 423/4/6
f 407/4/6 351/4/6 423/4/6
f 421/2/6 422/2/6 424/2/6
f 420/2/6 421/2/6 424/2/6
f 422/2/6 423/2/6 424/2/6
f 352/2/6 408/2/6 424/2/6
f 339/2/6 352/2/6 424/2/6
f 418/2/6 419/2/6 424/2/6
f 408/2/6 418/2/6 424/2/6
f 419/2/6 420/2/6 424/2/6
f 423/2/6 342/2/6 425/2/6
f 424/2/6 423/2/6 425/2/6
f 426/5/6 427/5/6 432/5/6
f 432/5/6 427/5/6 433/5/6
f 428/3/6 429/3/6 435/3/6
f 429/5/6 430/5/6 436/5/6
f 435/3/6 429/3/6 436/3/6
f 436/5/6 430/5/6 437/5/6
f 431/5/6 432/5/6 438/5/6
f 438/5/6 432/5/6 439/5/6
f 433/5/6 434/5/6 440/5/6
f 440/5/6 434/5/6 441/5/6
f 437/5/6 438/5/6 443/5/6
f 443/5/6 438/5/6 444/5/6
f 441/5/6 442/5/6 445/5/6
f 445/5/6 442/5/6 446/5/6
f 449/3/6 450/3/6 452/3/6
f 452/3/6 450/3/6 453/3/6
f 447/3/6 448/3/6 456/3/6
f 456/3/6 448/3/6 457/3/6
f 451/6/6 452/6/6 459/6/6
f 452/3/6 453/3/6 460/3/6
f 459/6/6 452/6/6 460/6/6
f 453/6/6 454/6/6 461/6/6
f 460/3/6 453/3/6 461/3/6
f 461/6/6 454/6/6 462/6/6
f 457/5/6 458/5/6 463/5/6
f 455/5/6 456/5/6 463/5/6
f 456/5/6 457/5/6 463/5/6
f 463/5/6 458/5/6 464/5/6
f 460/6/6 461/6/6 466/6/6
f 466/6/6 461/6/6 467/6/6
f 465/6/6 466/6/6 469/6/6
f 469/6/6 466/6/6 470/6/6
f 467/6/6 468/6/6 471/6/6
f 471/6/6 468/6/6 472/6/6
