# MagicaVoxel @ Ephtracy

# group
o 

# material
mtllib viPechka.mtl
usemtl palette

# normals
vn -1 0 0
vn 1 0 0
vn 0 0 1
vn 0 0 -1
vn 0 -1 0
vn 0 1 0

# texcoords
vt 0.853516 0.5
vt 0.982422 0.5
vt 0.986328 0.5
vt 0.990234 0.5
vt 0.994141 0.5

# verts
v 0.5 2 -0.7
v 0.5 2 -1.4
v 0.5 3.3 -0.7
v 0.5 3.3 -1.4
v 0.6 2 -0.6
v 0.6 2 -0.7
v 0.6 2 -1.4
v 0.6 2 -1.5
v 0.6 2.7 -0.6
v 0.6 2.7 -0.7
v 0.6 2.9 -0.6
v 0.6 2.9 -0.7
v 0.6 3.3 -0.7
v 0.6 3.3 -1.4
v 0.6 3.4 -0.6
v 0.6 3.4 -0.7
v 0.6 3.4 -1.4
v 0.6 3.4 -1.5
v 0.6 3.5 -0.7
v 0.6 3.5 -1.4
v 0.7 2 -0.8
v 0.7 2 -1.3
v 0.7 2.1 -0.7
v 0.7 2.1 -0.8
v 0.7 2.5 -0.7
v 0.7 2.5 -1.3
v 0.7 3.4 -0.6
v 0.7 3.4 -0.7
v 0.7 3.4 -1.4
v 0.7 3.4 -1.5
v 0.7 3.5 -0.6
v 0.7 3.5 -0.7
v 0.7 3.5 -1.4
v 0.7 3.5 -1.5
v 0.8 3.5 -1
v 0.8 3.5 -1.2
v 0.8 4 -1
v 0.8 4 -1.2
v 0.9 2.5 -0.7
v 0.9 2.5 -0.8
v 0.9 2.6 -0.7
v 0.9 2.6 -0.8
v 0.9 3.5 -0.9
v 0.9 3.5 -1
v 0.9 3.5 -1.2
v 0.9 3.5 -1.3
v 0.9 4 -0.9
v 0.9 4 -1
v 0.9 4 -1.2
v 0.9 4 -1.3
v 1.1 2 -0.6
v 1.1 2 -0.7
v 1.1 2.4 -0.6
v 1.1 2.4 -0.7
v 1.3 2.5 -1.3
v 1.3 2.5 -1.4
v 1.3 3.2 -1.3
v 1.3 3.2 -1.4
v 1.4 2 -0.8
v 1.4 2 -1.3
v 1.4 2.1 -0.7
v 1.4 2.1 -0.8
v 1.4 2.7 -0.7
v 1.4 2.9 -0.7
v 1.4 3.2 -0.7
v 1.4 3.2 -1.3
v 0.6 2 -0.8
v 0.6 2 -1.3
v 0.6 2.1 -0.7
v 0.6 2.1 -0.8
v 0.6 2.7 -0.7
v 0.6 2.9 -0.7
v 0.6 3.2 -0.7
v 0.6 3.2 -1.3
v 0.7 2.5 -1.3
v 0.7 2.5 -1.4
v 0.7 3.2 -1.3
v 0.7 3.2 -1.4
v 0.9 2 -0.6
v 0.9 2 -0.7
v 0.9 2.4 -0.6
v 0.9 2.4 -0.7
v 1.1 2.5 -0.7
v 1.1 2.5 -0.8
v 1.1 2.6 -0.7
v 1.1 2.6 -0.8
v 1.1 3.5 -0.9
v 1.1 3.5 -1
v 1.1 3.5 -1.2
v 1.1 3.5 -1.3
v 1.1 4 -0.9
v 1.1 4 -1
v 1.1 4 -1.2
v 1.1 4 -1.3
v 1.2 3.5 -1
v 1.2 3.5 -1.2
v 1.2 4 -1
v 1.2 4 -1.2
v 1.3 2 -0.8
v 1.3 2 -1.3
v 1.3 2.1 -0.7
v 1.3 2.1 -0.8
v 1.3 2.5 -0.7
v 1.3 2.5 -1.3
v 1.3 3.4 -0.6
v 1.3 3.4 -0.7
v 1.3 3.4 -1.4
v 1.3 3.4 -1.5
v 1.3 3.5 -0.6
v 1.3 3.5 -0.7
v 1.3 3.5 -1.4
v 1.3 3.5 -1.5
v 1.4 2 -0.6
v 1.4 2 -0.7
v 1.4 2 -1.4
v 1.4 2 -1.5
v 1.4 2.7 -0.6
v 1.4 2.7 -0.7
v 1.4 2.9 -0.6
v 1.4 2.9 -0.7
v 1.4 3.3 -0.7
v 1.4 3.3 -1.4
v 1.4 3.4 -0.6
v 1.4 3.4 -0.7
v 1.4 3.4 -1.4
v 1.4 3.4 -1.5
v 1.4 3.5 -0.7
v 1.4 3.5 -1.4
v 1.5 2 -0.7
v 1.5 2 -1.4
v 1.5 3.3 -0.7
v 1.5 3.3 -1.4
v 0.6 2 -0.6
v 0.6 2.7 -0.6
v 0.6 2.9 -0.6
v 0.6 3.4 -0.6
v 0.7 2.6 -0.6
v 0.7 2.7 -0.6
v 0.7 2.8 -0.6
v 0.7 2.9 -0.6
v 0.7 3 -0.6
v 0.7 3.4 -0.6
v 0.7 3.5 -0.6
v 0.8 2.5 -0.6
v 0.8 2.6 -0.6
v 0.8 2.7 -0.6
v 0.8 2.8 -0.6
v 0.8 2.9 -0.6
v 0.8 3 -0.6
v 0.8 3.1 -0.6
v 0.9 2 -0.6
v 0.9 2.4 -0.6
v 0.9 2.6 -0.6
v 0.9 2.7 -0.6
v 0.9 2.8 -0.6
v 0.9 3 -0.6
v 1 2.7 -0.6
v 1 3 -0.6
v 1.1 2 -0.6
v 1.1 2.4 -0.6
v 1.1 2.7 -0.6
v 1.1 2.9 -0.6
v 1.2 2.5 -0.6
v 1.2 2.6 -0.6
v 1.2 2.8 -0.6
v 1.2 2.9 -0.6
v 1.2 3 -0.6
v 1.2 3.1 -0.6
v 1.3 2.6 -0.6
v 1.3 2.7 -0.6
v 1.3 2.8 -0.6
v 1.3 2.9 -0.6
v 1.3 3 -0.6
v 1.3 3.4 -0.6
v 1.3 3.5 -0.6
v 1.4 2 -0.6
v 1.4 2.7 -0.6
v 1.4 2.9 -0.6
v 1.4 3.4 -0.6
v 0.5 2 -0.7
v 0.5 3.3 -0.7
v 0.6 2 -0.7
v 0.6 2.7 -0.7
v 0.6 2.9 -0.7
v 0.6 3.3 -0.7
v 0.6 3.4 -0.7
v 0.6 3.5 -0.7
v 0.7 3.4 -0.7
v 0.7 3.5 -0.7
v 0.9 2 -0.7
v 0.9 2.4 -0.7
v 1.1 2 -0.7
v 1.1 2.4 -0.7
v 1.3 3.4 -0.7
v 1.3 3.5 -0.7
v 1.4 2 -0.7
v 1.4 2.7 -0.7
v 1.4 2.9 -0.7
v 1.4 3.3 -0.7
v 1.4 3.4 -0.7
v 1.4 3.5 -0.7
v 1.5 2 -0.7
v 1.5 3.3 -0.7
v 0.9 3.5 -0.9
v 0.9 4 -0.9
v 1.1 3.5 -0.9
v 1.1 4 -0.9
v 0.8 3.5 -1
v 0.8 4 -1
v 0.9 3.5 -1
v 0.9 4 -1
v 1.1 3.5 -1
v 1.1 4 -1
v 1.2 3.5 -1
v 1.2 4 -1
v 0.6 2 -1.3
v 0.6 3.2 -1.3
v 0.7 2 -1.3
v 0.7 2.5 -1.3
v 0.7 3.2 -1.3
v 1.3 2 -1.3
v 1.3 2.5 -1.3
v 1.3 3.2 -1.3
v 1.4 2 -1.3
v 1.4 3.2 -1.3
v 0.7 2.5 -1.4
v 0.7 3.2 -1.4
v 1.3 2.5 -1.4
v 1.3 3.2 -1.4
v 0.6 2.1 -0.7
v 0.6 2.7 -0.7
v 0.6 2.9 -0.7
v 0.6 3.2 -0.7
v 0.7 2.1 -0.7
v 0.7 2.5 -0.7
v 0.7 2.6 -0.7
v 0.7 2.7 -0.7
v 0.7 2.8 -0.7
v 0.7 2.9 -0.7
v 0.7 3 -0.7
v 0.8 2.5 -0.7
v 0.8 2.6 -0.7
v 0.8 2.7 -0.7
v 0.8 2.8 -0.7
v 0.8 2.9 -0.7
v 0.8 3 -0.7
v 0.8 3.1 -0.7
v 0.9 2.5 -0.7
v 0.9 2.6 -0.7
v 0.9 2.7 -0.7
v 0.9 2.8 -0.7
v 0.9 3 -0.7
v 1 2.7 -0.7
v 1 3 -0.7
v 1.1 2.5 -0.7
v 1.1 2.6 -0.7
v 1.1 2.7 -0.7
v 1.1 2.9 -0.7
v 1.2 2.5 -0.7
v 1.2 2.6 -0.7
v 1.2 2.8 -0.7
v 1.2 2.9 -0.7
v 1.2 3 -0.7
v 1.2 3.1 -0.7
v 1.3 2.1 -0.7
v 1.3 2.5 -0.7
v 1.3 2.6 -0.7
v 1.3 2.7 -0.7
v 1.3 2.8 -0.7
v 1.3 2.9 -0.7
v 1.3 3 -0.7
v 1.4 2.1 -0.7
v 1.4 2.7 -0.7
v 1.4 2.9 -0.7
v 1.4 3.2 -0.7
v 0.6 2 -0.8
v 0.6 2.1 -0.8
v 0.7 2 -0.8
v 0.7 2.1 -0.8
v 0.9 2.5 -0.8
v 0.9 2.6 -0.8
v 1.1 2.5 -0.8
v 1.1 2.6 -0.8
v 1.3 2 -0.8
v 1.3 2.1 -0.8
v 1.4 2 -0.8
v 1.4 2.1 -0.8
v 0.8 3.5 -1.2
v 0.8 4 -1.2
v 0.9 3.5 -1.2
v 0.9 4 -1.2
v 1.1 3.5 -1.2
v 1.1 4 -1.2
v 1.2 3.5 -1.2
v 1.2 4 -1.2
v 0.9 3.5 -1.3
v 0.9 4 -1.3
v 1.1 3.5 -1.3
v 1.1 4 -1.3
v 0.5 2 -1.4
v 0.5 3.3 -1.4
v 0.6 2 -1.4
v 0.6 3.3 -1.4
v 0.6 3.4 -1.4
v 0.6 3.5 -1.4
v 0.7 3.4 -1.4
v 0.7 3.5 -1.4
v 1.3 3.4 -1.4
v 1.3 3.5 -1.4
v 1.4 2 -1.4
v 1.4 3.3 -1.4
v 1.4 3.4 -1.4
v 1.4 3.5 -1.4
v 1.5 2 -1.4
v 1.5 3.3 -1.4
v 0.6 2 -1.5
v 0.6 3.4 -1.5
v 0.7 3.4 -1.5
v 0.7 3.5 -1.5
v 1.3 3.4 -1.5
v 1.3 3.5 -1.5
v 1.4 2 -1.5
v 1.4 3.4 -1.5
v 0.6 2 -0.6
v 0.9 2 -0.6
v 1.1 2 -0.6
v 1.4 2 -0.6
v 0.5 2 -0.7
v 0.6 2 -0.7
v 0.9 2 -0.7
v 1.1 2 -0.7
v 1.4 2 -0.7
v 1.5 2 -0.7
v 0.6 2 -0.8
v 0.7 2 -0.8
v 0.9 2 -0.8
v 1.1 2 -0.8
v 1.3 2 -0.8
v 1.4 2 -0.8
v 0.6 2 -1.3
v 0.7 2 -1.3
v 1.3 2 -1.3
v 1.4 2 -1.3
v 0.5 2 -1.4
v 0.6 2 -1.4
v 1.4 2 -1.4
v 1.5 2 -1.4
v 0.6 2 -1.5
v 1.4 2 -1.5
v 0.9 2.4 -0.6
v 1.1 2.4 -0.6
v 0.9 2.4 -0.7
v 1.1 2.4 -0.7
v 0.6 3.2 -0.7
v 1.4 3.2 -0.7
v 0.6 3.2 -1.3
v 0.7 3.2 -1.3
v 1.3 3.2 -1.3
v 1.4 3.2 -1.3
v 0.7 3.2 -1.4
v 1.3 3.2 -1.4
v 0.6 2.1 -0.7
v 0.7 2.1 -0.7
v 1.3 2.1 -0.7
v 1.4 2.1 -0.7
v 0.6 2.1 -0.8
v 0.7 2.1 -0.8
v 1.3 2.1 -0.8
v 1.4 2.1 -0.8
v 0.7 2.5 -0.7
v 0.8 2.5 -0.7
v 0.9 2.5 -0.7
v 1.1 2.5 -0.7
v 1.2 2.5 -0.7
v 1.3 2.5 -0.7
v 0.9 2.5 -0.8
v 1.1 2.5 -0.8
v 0.7 2.5 -1.3
v 1.3 2.5 -1.3
v 0.7 2.5 -1.4
v 1.3 2.5 -1.4
v 0.9 2.6 -0.7
v 1.1 2.6 -0.7
v 0.9 2.6 -0.8
v 1.1 2.6 -0.8
v 0.5 3.3 -0.7
v 0.6 3.3 -0.7
v 1.4 3.3 -0.7
v 1.5 3.3 -0.7
v 0.5 3.3 -1.4
v 0.6 3.3 -1.4
v 1.4 3.3 -1.4
v 1.5 3.3 -1.4
v 0.6 3.4 -0.6
v 0.7 3.4 -0.6
v 1.3 3.4 -0.6
v 1.4 3.4 -0.6
v 0.6 3.4 -0.7
v 0.7 3.4 -0.7
v 1.3 3.4 -0.7
v 1.4 3.4 -0.7
v 0.6 3.4 -1.4
v 0.7 3.4 -1.4
v 1.3 3.4 -1.4
v 1.4 3.4 -1.4
v 0.6 3.4 -1.5
v 0.7 3.4 -1.5
v 1.3 3.4 -1.5
v 1.4 3.4 -1.5
v 0.7 3.5 -0.6
v 1.3 3.5 -0.6
v 0.6 3.5 -0.7
v 0.7 3.5 -0.7
v 1.3 3.5 -0.7
v 1.4 3.5 -0.7
v 0.9 3.5 -0.9
v 1.1 3.5 -0.9
v 0.8 3.5 -1
v 0.9 3.5 -1
v 1.1 3.5 -1
v 1.2 3.5 -1
v 0.8 3.5 -1.2
v 0.9 3.5 -1.2
v 1.1 3.5 -1.2
v 1.2 3.5 -1.2
v 0.9 3.5 -1.3
v 1.1 3.5 -1.3
v 0.6 3.5 -1.4
v 0.7 3.5 -1.4
v 1.3 3.5 -1.4
v 1.4 3.5 -1.4
v 0.7 3.5 -1.5
v 1.3 3.5 -1.5
v 0.9 4 -0.9
v 1.1 4 -0.9
v 0.8 4 -1
v 0.9 4 -1
v 1.1 4 -1
v 1.2 4 -1
v 0.8 4 -1.2
v 0.9 4 -1.2
v 1.1 4 -1.2
v 1.2 4 -1.2
v 0.9 4 -1.3
v 1.1 4 -1.3

# faces
f 3/3/1 2/3/1 1/3/1
f 4/3/1 2/3/1 3/3/1
f 9/2/1 6/2/1 5/2/1
f 10/2/1 6/2/1 9/2/1
f 11/5/1 10/5/1 9/5/1
f 12/5/1 10/5/1 11/5/1
f 13/2/1 12/2/1 11/2/1
f 14/3/1 8/3/1 7/3/1
f 15/2/1 13/2/1 11/2/1
f 15/2/1 14/2/1 13/2/1
f 16/2/1 14/2/1 15/2/1
f 17/3/1 8/3/1 14/3/1
f 17/2/1 14/2/1 16/2/1
f 18/3/1 8/3/1 17/3/1
f 19/3/1 17/3/1 16/3/1
f 20/3/1 17/3/1 19/3/1
f 24/2/1 22/2/1 21/2/1
f 25/2/1 24/2/1 23/2/1
f 26/2/1 22/2/1 24/2/1
f 26/2/1 24/2/1 25/2/1
f 31/3/1 28/3/1 27/3/1
f 32/3/1 28/3/1 31/3/1
f 33/3/1 30/3/1 29/3/1
f 34/3/1 30/3/1 33/3/1
f 37/4/1 36/4/1 35/4/1
f 38/4/1 36/4/1 37/4/1
f 41/2/1 40/2/1 39/2/1
f 42/2/1 40/2/1 41/2/1
f 47/4/1 44/4/1 43/4/1
f 48/4/1 44/4/1 47/4/1
f 49/4/1 46/4/1 45/4/1
f 50/4/1 46/4/1 49/4/1
f 53/2/1 52/2/1 51/2/1
f 54/2/1 52/2/1 53/2/1
f 57/2/1 56/2/1 55/2/1
f 58/2/1 56/2/1 57/2/1
f 62/3/1 60/3/1 59/3/1
f 63/3/1 62/3/1 61/3/1
f 64/3/1 62/3/1 63/3/1
f 65/3/1 62/3/1 64/3/1
f 66/3/1 60/3/1 62/3/1
f 66/3/1 62/3/1 65/3/1
f 67/3/2 68/3/2 70/3/2
f 69/3/2 70/3/2 71/3/2
f 71/3/2 70/3/2 72/3/2
f 72/3/2 70/3/2 73/3/2
f 70/3/2 68/3/2 74/3/2
f 73/3/2 70/3/2 74/3/2
f 75/2/2 76/2/2 77/2/2
f 77/2/2 76/2/2 78/2/2
f 79/2/2 80/2/2 81/2/2
f 81/2/2 80/2/2 82/2/2
f 83/2/2 84/2/2 85/2/2
f 85/2/2 84/2/2 86/2/2
f 87/4/2 88/4/2 91/4/2
f 91/4/2 88/4/2 92/4/2
f 89/4/2 90/4/2 93/4/2
f 93/4/2 90/4/2 94/4/2
f 95/4/2 96/4/2 97/4/2
f 97/4/2 96/4/2 98/4/2
f 99/2/2 100/2/2 102/2/2
f 101/2/2 102/2/2 103/2/2
f 102/2/2 100/2/2 104/2/2
f 103/2/2 102/2/2 104/2/2
f 105/3/2 106/3/2 109/3/2
f 109/3/2 106/3/2 110/3/2
f 107/3/2 108/3/2 111/3/2
f 111/3/2 108/3/2 112/3/2
f 113/2/2 114/2/2 117/2/2
f 117/2/2 114/2/2 118/2/2
f 117/5/2 118/5/2 119/5/2
f 119/5/2 118/5/2 120/5/2
f 119/2/2 120/2/2 121/2/2
f 115/3/2 116/3/2 122/3/2
f 119/2/2 121/2/2 123/2/2
f 121/2/2 122/2/2 123/2/2
f 123/2/2 122/2/2 124/2/2
f 122/3/2 116/3/2 125/3/2
f 124/2/2 122/2/2 125/2/2
f 125/3/2 116/3/2 126/3/2
f 124/3/2 125/3/2 127/3/2
f 127/3/2 125/3/2 128/3/2
f 129/3/2 130/3/2 131/3/2
f 131/3/2 130/3/2 132/3/2
f 137/2/3 134/2/3 133/2/3
f 138/5/3 135/5/3 134/5/3
f 138/2/3 134/2/3 137/2/3
f 139/5/3 135/5/3 138/5/3
f 140/2/3 136/2/3 135/2/3
f 140/5/3 135/5/3 139/5/3
f 141/2/3 136/2/3 140/2/3
f 142/2/3 136/2/3 141/2/3
f 144/2/3 137/2/3 133/2/3
f 145/5/3 139/5/3 138/5/3
f 145/2/3 137/2/3 144/2/3
f 145/5/3 138/5/3 137/5/3
f 146/5/3 139/5/3 145/5/3
f 147/1/3 140/1/3 139/1/3
f 147/5/3 139/5/3 146/5/3
f 148/5/3 141/5/3 140/5/3
f 148/1/3 140/1/3 147/1/3
f 149/2/3 142/2/3 141/2/3
f 149/5/3 141/5/3 148/5/3
f 150/2/3 142/2/3 149/2/3
f 151/2/3 144/2/3 133/2/3
f 152/2/3 144/2/3 151/2/3
f 153/2/3 146/2/3 145/2/3
f 153/5/3 145/5/3 144/5/3
f 154/1/3 147/1/3 146/1/3
f 154/2/3 146/2/3 153/2/3
f 155/2/3 148/2/3 147/2/3
f 155/1/3 147/1/3 154/1/3
f 155/2/3 149/2/3 148/2/3
f 156/5/3 150/5/3 149/5/3
f 156/2/3 149/2/3 155/2/3
f 157/1/3 154/1/3 153/1/3
f 157/1/3 156/1/3 155/1/3
f 157/1/3 155/1/3 154/1/3
f 158/5/3 150/5/3 156/5/3
f 158/1/3 156/1/3 157/1/3
f 160/2/3 144/2/3 152/2/3
f 161/1/3 157/1/3 153/1/3
f 161/2/3 158/2/3 157/2/3
f 162/2/3 158/2/3 161/2/3
f 163/2/3 160/2/3 159/2/3
f 163/5/3 153/5/3 144/5/3
f 163/2/3 144/2/3 160/2/3
f 164/1/3 162/1/3 161/1/3
f 164/5/3 153/5/3 163/5/3
f 164/1/3 161/1/3 153/1/3
f 165/1/3 162/1/3 164/1/3
f 166/2/3 158/2/3 162/2/3
f 166/1/3 162/1/3 165/1/3
f 167/5/3 150/5/3 158/5/3
f 167/2/3 158/2/3 166/2/3
f 168/2/3 142/2/3 150/2/3
f 168/5/3 150/5/3 167/5/3
f 169/5/3 165/5/3 164/5/3
f 169/2/3 164/2/3 163/2/3
f 170/5/3 165/5/3 169/5/3
f 171/2/3 166/2/3 165/2/3
f 171/5/3 165/5/3 170/5/3
f 172/5/3 167/5/3 166/5/3
f 172/2/3 166/2/3 171/2/3
f 173/2/3 168/2/3 167/2/3
f 173/5/3 167/5/3 172/5/3
f 174/3/3 143/3/3 142/3/3
f 174/2/3 168/2/3 173/2/3
f 174/2/3 142/2/3 168/2/3
f 175/3/3 143/3/3 174/3/3
f 176/2/3 169/2/3 163/2/3
f 176/2/3 170/2/3 169/2/3
f 176/2/3 163/2/3 159/2/3
f 177/5/3 171/5/3 170/5/3
f 177/2/3 170/2/3 176/2/3
f 177/5/3 172/5/3 171/5/3
f 178/2/3 173/2/3 172/2/3
f 178/5/3 172/5/3 177/5/3
f 178/2/3 174/2/3 173/2/3
f 179/2/3 174/2/3 178/2/3
f 182/3/3 181/3/3 180/3/3
f 183/3/3 181/3/3 182/3/3
f 184/3/3 181/3/3 183/3/3
f 185/3/3 181/3/3 184/3/3
f 188/3/3 187/3/3 186/3/3
f 189/3/3 187/3/3 188/3/3
f 192/3/3 191/3/3 190/3/3
f 193/3/3 191/3/3 192/3/3
f 200/3/3 195/3/3 194/3/3
f 201/3/3 195/3/3 200/3/3
f 202/3/3 199/3/3 198/3/3
f 202/3/3 197/3/3 196/3/3
f 202/3/3 198/3/3 197/3/3
f 203/3/3 199/3/3 202/3/3
f 206/4/3 205/4/3 204/4/3
f 207/4/3 205/4/3 206/4/3
f 210/4/3 209/4/3 208/4/3
f 211/4/3 209/4/3 210/4/3
f 214/4/3 213/4/3 212/4/3
f 215/4/3 213/4/3 214/4/3
f 218/2/3 217/2/3 216/2/3
f 219/2/3 217/2/3 218/2/3
f 220/2/3 217/2/3 219/2/3
f 224/2/3 222/2/3 221/2/3
f 224/2/3 223/2/3 222/2/3
f 225/2/3 223/2/3 224/2/3
f 228/3/3 227/3/3 226/3/3
f 229/3/3 227/3/3 228/3/3
f 230/2/4 231/2/4 234/2/4
f 234/2/4 231/2/4 235/2/4
f 235/2/4 231/2/4 236/2/4
f 231/5/4 232/5/4 237/5/4
f 236/2/4 231/2/4 237/2/4
f 237/5/4 232/5/4 238/5/4
f 232/2/4 233/2/4 239/2/4
f 238/5/4 232/5/4 239/5/4
f 239/2/4 233/2/4 240/2/4
f 235/2/4 236/2/4 241/2/4
f 237/5/4 238/5/4 242/5/4
f 241/2/4 236/2/4 242/2/4
f 236/5/4 237/5/4 242/5/4
f 242/5/4 238/5/4 243/5/4
f 238/1/4 239/1/4 244/1/4
f 243/5/4 238/5/4 244/5/4
f 239/5/4 240/5/4 245/5/4
f 244/1/4 239/1/4 245/1/4
f 240/2/4 233/2/4 246/2/4
f 245/5/4 240/5/4 246/5/4
f 246/2/4 233/2/4 247/2/4
f 241/5/4 242/5/4 248/5/4
f 242/2/4 243/2/4 249/2/4
f 248/5/4 242/5/4 249/5/4
f 243/1/4 244/1/4 250/1/4
f 249/2/4 243/2/4 250/2/4
f 244/2/4 245/2/4 251/2/4
f 250/1/4 244/1/4 251/1/4
f 245/2/4 246/2/4 251/2/4
f 246/5/4 247/5/4 252/5/4
f 251/2/4 246/2/4 252/2/4
f 249/1/4 250/1/4 253/1/4
f 251/1/4 252/1/4 253/1/4
f 250/1/4 251/1/4 253/1/4
f 252/5/4 247/5/4 254/5/4
f 253/1/4 252/1/4 254/1/4
f 249/1/4 253/1/4 256/1/4
f 253/2/4 254/2/4 257/2/4
f 256/1/4 253/1/4 257/1/4
f 257/2/4 254/2/4 258/2/4
f 255/5/4 256/5/4 259/5/4
f 256/1/4 257/1/4 260/1/4
f 259/5/4 256/5/4 260/5/4
f 257/1/4 258/1/4 260/1/4
f 260/1/4 258/1/4 261/1/4
f 258/2/4 254/2/4 262/2/4
f 261/1/4 258/1/4 262/1/4
f 254/5/4 247/5/4 263/5/4
f 262/2/4 254/2/4 263/2/4
f 247/2/4 233/2/4 264/2/4
f 263/5/4 247/5/4 264/5/4
f 259/2/4 260/2/4 266/2/4
f 260/5/4 261/5/4 267/5/4
f 266/2/4 260/2/4 267/2/4
f 267/5/4 261/5/4 268/5/4
f 261/2/4 262/2/4 269/2/4
f 268/5/4 261/5/4 269/5/4
f 262/5/4 263/5/4 270/5/4
f 269/2/4 262/2/4 270/2/4
f 263/2/4 264/2/4 271/2/4
f 270/5/4 263/5/4 271/5/4
f 267/2/4 268/2/4 272/2/4
f 265/2/4 266/2/4 272/2/4
f 266/2/4 267/2/4 272/2/4
f 268/5/4 269/5/4 273/5/4
f 272/2/4 268/2/4 273/2/4
f 269/5/4 270/5/4 273/5/4
f 270/2/4 271/2/4 274/2/4
f 273/5/4 270/5/4 274/5/4
f 271/2/4 264/2/4 275/2/4
f 274/2/4 271/2/4 275/2/4
f 264/2/4 233/2/4 275/2/4
f 276/2/4 277/2/4 278/2/4
f 278/2/4 277/2/4 279/2/4
f 280/2/4 281/2/4 282/2/4
f 282/2/4 281/2/4 283/2/4
f 284/2/4 285/2/4 286/2/4
f 286/2/4 285/2/4 287/2/4
f 288/4/4 289/4/4 290/4/4
f 290/4/4 289/4/4 291/4/4
f 292/4/4 293/4/4 294/4/4
f 294/4/4 293/4/4 295/4/4
f 296/4/4 297/4/4 298/4/4
f 298/4/4 297/4/4 299/4/4
f 300/3/4 301/3/4 302/3/4
f 302/3/4 301/3/4 303/3/4
f 304/3/4 305/3/4 306/3/4
f 306/3/4 305/3/4 307/3/4
f 308/3/4 309/3/4 312/3/4
f 312/3/4 309/3/4 313/3/4
f 310/3/4 311/3/4 314/3/4
f 314/3/4 311/3/4 315/3/4
f 316/3/4 317/3/4 318/3/4
f 316/3/4 318/3/4 320/3/4
f 318/3/4 319/3/4 320/3/4
f 320/3/4 319/3/4 321/3/4
f 316/3/4 320/3/4 322/3/4
f 322/3/4 320/3/4 323/3/4
f 329/2/5 325/2/5 324/2/5
f 330/2/5 325/2/5 329/2/5
f 331/2/5 327/2/5 326/2/5
f 332/2/5 327/2/5 331/2/5
f 334/2/5 330/2/5 329/2/5
f 334/3/5 329/3/5 328/3/5
f 335/2/5 330/2/5 334/2/5
f 336/3/5 331/3/5 330/3/5
f 336/2/5 330/2/5 335/2/5
f 337/2/5 332/2/5 331/2/5
f 337/3/5 331/3/5 336/3/5
f 338/2/5 332/2/5 337/2/5
f 339/3/5 333/3/5 332/3/5
f 339/2/5 332/2/5 338/2/5
f 340/3/5 334/3/5 328/3/5
f 341/2/5 338/2/5 337/2/5
f 341/2/5 336/2/5 335/2/5
f 341/2/5 337/2/5 336/2/5
f 342/2/5 338/2/5 341/2/5
f 343/3/5 333/3/5 339/3/5
f 344/3/5 340/3/5 328/3/5
f 345/2/5 343/2/5 342/2/5
f 345/3/5 340/3/5 344/3/5
f 345/2/5 342/2/5 341/2/5
f 345/2/5 341/2/5 340/2/5
f 346/3/5 333/3/5 343/3/5
f 346/2/5 343/2/5 345/2/5
f 347/3/5 333/3/5 346/3/5
f 348/3/5 346/3/5 345/3/5
f 349/3/5 346/3/5 348/3/5
f 352/2/5 351/2/5 350/2/5
f 353/2/5 351/2/5 352/2/5
f 356/2/5 355/2/5 354/2/5
f 357/2/5 355/2/5 356/2/5
f 358/2/5 355/2/5 357/2/5
f 359/2/5 355/2/5 358/2/5
f 360/2/5 358/2/5 357/2/5
f 361/2/5 358/2/5 360/2/5
f 362/2/6 363/2/6 366/2/6
f 366/2/6 363/2/6 367/2/6
f 364/2/6 365/2/6 368/2/6
f 368/2/6 365/2/6 369/2/6
f 370/2/6 371/2/6 376/2/6
f 371/2/6 372/2/6 376/2/6
f 374/2/6 375/2/6 377/2/6
f 373/2/6 374/2/6 377/2/6
f 370/2/6 376/2/6 378/2/6
f 376/2/6 377/2/6 378/2/6
f 377/2/6 375/2/6 379/2/6
f 378/2/6 377/2/6 379/2/6
f 378/2/6 379/2/6 380/2/6
f 380/2/6 379/2/6 381/2/6
f 382/2/6 383/2/6 384/2/6
f 384/2/6 383/2/6 385/2/6
f 386/3/6 387/3/6 390/3/6
f 390/3/6 387/3/6 391/3/6
f 388/3/6 389/3/6 392/3/6
f 392/3/6 389/3/6 393/3/6
f 394/2/6 395/2/6 398/2/6
f 398/2/6 395/2/6 399/2/6
f 396/2/6 397/2/6 400/2/6
f 400/2/6 397/2/6 401/2/6
f 402/3/6 403/3/6 406/3/6
f 406/3/6 403/3/6 407/3/6
f 404/3/6 405/3/6 408/3/6
f 408/3/6 405/3/6 409/3/6
f 410/3/6 411/3/6 413/3/6
f 413/3/6 411/3/6 414/3/6
f 412/3/6 413/3/6 416/3/6
f 414/3/6 415/3/6 416/3/6
f 413/3/6 414/3/6 416/3/6
f 416/3/6 415/3/6 417/3/6
f 412/3/6 416/3/6 418/3/6
f 418/3/6 416/3/6 419/3/6
f 417/3/6 415/3/6 420/3/6
f 420/3/6 415/3/6 421/3/6
f 412/3/6 418/3/6 422/3/6
f 421/3/6 415/3/6 425/3/6
f 422/3/6 423/3/6 426/3/6
f 424/3/6 425/3/6 427/3/6
f 422/3/6 426/3/6 428/3/6
f 426/3/6 427/3/6 428/3/6
f 412/3/6 422/3/6 428/3/6
f 428/3/6 427/3/6 429/3/6
f 427/3/6 425/3/6 430/3/6
f 429/3/6 427/3/6 430/3/6
f 425/3/6 415/3/6 430/3/6
f 430/3/6 415/3/6 431/3/6
f 429/3/6 430/3/6 432/3/6
f 432/3/6 430/3/6 433/3/6
f 434/4/6 435/4/6 437/4/6
f 437/4/6 435/4/6 438/4/6
f 436/4/6 437/4/6 440/4/6
f 438/4/6 439/4/6 440/4/6
f 437/4/6 438/4/6 440/4/6
f 440/4/6 439/4/6 441/4/6
f 441/4/6 439/4/6 442/4/6
f 442/4/6 439/4/6 443/4/6
f 441/4/6 442/4/6 444/4/6
f 444/4/6 442/4/6 445/4/6
