# shivshank's .obj optimizer

# normals
vn -1 0 0
vn 1 0 0
vn 0 0 1
vn 0 0 -1
vn 0 -1 0
vn 0 1 0

# texcoords
vt 0.935546875 0.5

# verts
v 5 7 5
v 5 7 4
v 5 8 4
v 5 8 5
v 4 8 5
v 4 7 5
v 5 7 5
v 5 8 5
v 4 7 5
v 4 7 4
v 5 7 4
v 5 7 5
v 5 8 5
v 5 8 4
v 4 8 4
v 4 8 5
v 3 8 5
v 3 8 4
v 3 7 4
v 3 7 5
v 3 8 5
v 3 7 5
v 4 7 5
v 4 8 5
v 8 3 4
v 8 3 3
v 8 4 3
v 8 4 4
v 7 4 4
v 7 3 4
v 8 3 4
v 8 4 4
v 4 9 4
v 4 9 3
v 5 9 3
v 5 9 4
v 5 10 4
v 5 10 3
v 4 10 3
v 4 10 4
v 9 7 4
v 9 7 3
v 9 8 3
v 9 8 4
v 8 8 4
v 8 7 4
v 9 7 4
v 9 8 4
v 3 2 0
v 3 3 0
v 4 3 0
v 4 2 0
v 3 2 1
v 3 2 0
v 4 2 0
v 4 2 1
v 4 2 0
v 4 3 0
v 5 3 0
v 5 2 0
v 4 2 1
v 4 2 0
v 5 2 0
v 5 2 1
v 5 2 0
v 5 3 0
v 6 3 0
v 6 2 0
v 5 2 1
v 5 2 0
v 6 2 0
v 6 2 1
v 7 2 1
v 7 2 0
v 7 3 0
v 7 3 1
v 6 2 0
v 6 3 0
v 7 3 0
v 7 2 0
v 6 2 1
v 6 2 0
v 7 2 0
v 7 2 1
v 3 4 4
v 3 3 4
v 4 3 4
v 4 4 4
v 3 3 0
v 3 4 0
v 4 4 0
v 4 3 0
v 4 3 0
v 4 4 0
v 5 4 0
v 5 3 0
v 5 3 0
v 5 4 0
v 6 4 0
v 6 3 0
v 6 3 0
v 6 4 0
v 7 4 0
v 7 3 0
v 8 3 1
v 8 3 0
v 8 4 0
v 8 4 1
v 7 3 0
v 7 4 0
v 8 4 0
v 8 3 0
v 7 3 1
v 7 3 0
v 8 3 0
v 8 3 1
v 3 4 0
v 3 5 0
v 4 5 0
v 4 4 0
v 4 4 0
v 4 5 0
v 5 5 0
v 5 4 0
v 5 4 0
v 5 5 0
v 6 5 0
v 6 4 0
v 6 4 0
v 6 5 0
v 7 5 0
v 7 4 0
v 8 4 1
v 8 4 0
v 8 5 0
v 8 5 1
v 7 4 0
v 7 5 0
v 8 5 0
v 8 4 0
v 3 5 0
v 3 6 0
v 4 6 0
v 4 5 0
v 4 5 0
v 4 6 0
v 5 6 0
v 5 5 0
v 5 5 0
v 5 6 0
v 6 6 0
v 6 5 0
v 6 5 0
v 6 6 0
v 7 6 0
v 7 5 0
v 7 5 0
v 7 6 0
v 8 6 0
v 8 5 0
v 3 6 0
v 3 7 0
v 4 7 0
v 4 6 0
v 4 6 0
v 4 7 0
v 5 7 0
v 5 6 0
v 5 6 0
v 5 7 0
v 6 7 0
v 6 6 0
v 6 6 0
v 6 7 0
v 7 7 0
v 7 6 0
v 7 6 0
v 7 7 0
v 8 7 0
v 8 6 0
v 3 7 0
v 3 8 0
v 4 8 0
v 4 7 0
v 4 7 0
v 4 8 0
v 5 8 0
v 5 7 0
v 5 7 0
v 5 8 0
v 6 8 0
v 6 7 0
v 6 7 0
v 6 8 0
v 7 8 0
v 7 7 0
v 7 7 0
v 7 8 0
v 8 8 0
v 8 7 0
v 3 8 0
v 3 9 0
v 4 9 0
v 4 8 0
v 4 8 0
v 4 9 0
v 5 9 0
v 5 8 0
v 5 8 0
v 5 9 0
v 6 9 0
v 6 8 0
v 6 8 0
v 6 9 0
v 7 9 0
v 7 8 0
v 7 8 0
v 7 9 0
v 8 9 0
v 8 8 0
v 0 7 4
v 0 7 3
v 0 6 3
v 0 6 4
v 0 6 3
v 0 7 3
v 1 7 3
v 1 6 3
v 0 6 4
v 0 6 3
v 1 6 3
v 1 6 4
v 1 7 4
v 1 7 3
v 0 7 3
v 0 7 4
v 5 7 5
v 5 7 4
v 5 6 4
v 5 6 5
v 6 6 5
v 6 6 4
v 6 7 4
v 6 7 5
v 5 7 5
v 5 6 5
v 6 6 5
v 6 7 5
v 6 7 5
v 6 7 4
v 5 7 4
v 5 7 5
v 1 9 4
v 1 9 3
v 1 8 3
v 1 8 4
v 1 9 4
v 1 8 4
v 2 8 4
v 2 9 4
v 4 6 5
v 4 6 4
v 4 7 4
v 4 7 5
v 3 7 5
v 3 6 5
v 4 6 5
v 4 7 5
v 2 7 5
v 2 6 5
v 3 6 5
v 3 7 5
v 3 7 5
v 3 7 4
v 2 7 4
v 2 7 5
v 2 10 4
v 2 10 3
v 1 10 3
v 1 10 4
v 1 4 4
v 1 4 3
v 1 3 3
v 1 3 4
v 1 4 4
v 1 3 4
v 2 3 4
v 2 4 4
v 1 7 5
v 1 6 5
v 2 6 5
v 2 7 5
v 2 7 5
v 2 7 4
v 1 7 4
v 1 7 5
v 0 7 5
v 0 7 4
v 0 6 4
v 0 6 5
v 0 7 5
v 0 6 5
v 1 6 5
v 1 7 5
v 0 6 5
v 0 6 4
v 1 6 4
v 1 6 5
v 1 7 5
v 1 7 4
v 0 7 4
v 0 7 5
v 5 9 4
v 5 9 3
v 6 9 3
v 6 9 4
v 6 10 4
v 6 10 3
v 5 10 3
v 5 10 4
v 0 10 4
v 0 10 3
v 0 9 3
v 0 9 4
v 0 9 4
v 0 9 3
v 1 9 3
v 1 9 4
v 1 10 4
v 1 10 3
v 0 10 3
v 0 10 4
v 8 4 4
v 8 4 3
v 8 5 3
v 8 5 4
v 0 3 1
v 0 3 0
v 0 2 0
v 0 2 1
v 0 2 0
v 0 3 0
v 1 3 0
v 1 2 0
v 0 2 1
v 0 2 0
v 1 2 0
v 1 2 1
v 1 2 0
v 1 3 0
v 2 3 0
v 2 2 0
v 1 2 1
v 1 2 0
v 2 2 0
v 2 2 1
v 2 2 0
v 2 3 0
v 3 3 0
v 3 2 0
v 2 2 1
v 2 2 0
v 3 2 0
v 3 2 1
v 2 4 4
v 2 3 4
v 3 3 4
v 3 4 4
v 0 4 1
v 0 4 0
v 0 3 0
v 0 3 1
v 0 3 0
v 0 4 0
v 1 4 0
v 1 3 0
v 1 3 0
v 1 4 0
v 2 4 0
v 2 3 0
v 2 3 0
v 2 4 0
v 3 4 0
v 3 3 0
v 6 4 4
v 6 3 4
v 7 3 4
v 7 4 4
v 2 9 4
v 2 8 4
v 3 8 4
v 3 9 4
v 0 5 1
v 0 5 0
v 0 4 0
v 0 4 1
v 0 4 0
v 0 5 0
v 1 5 0
v 1 4 0
v 1 4 0
v 1 5 0
v 2 5 0
v 2 4 0
v 2 4 0
v 2 5 0
v 3 5 0
v 3 4 0
v 9 2 4
v 9 2 3
v 9 3 3
v 9 3 4
v 8 3 4
v 8 2 4
v 9 2 4
v 9 3 4
v 8 2 4
v 8 2 3
v 9 2 3
v 9 2 4
v 9 3 4
v 9 3 3
v 8 3 3
v 8 3 4
v 7 3 4
v 7 2 4
v 8 2 4
v 8 3 4
v 7 2 4
v 7 2 3
v 8 2 3
v 8 2 4
v 0 6 1
v 0 6 0
v 0 5 0
v 0 5 1
v 0 5 0
v 0 6 0
v 1 6 0
v 1 5 0
v 1 5 0
v 1 6 0
v 2 6 0
v 2 5 0
v 2 5 0
v 2 6 0
v 3 6 0
v 3 5 0
v 9 5 1
v 9 5 0
v 9 6 0
v 9 6 1
v 8 5 0
v 8 6 0
v 9 6 0
v 9 5 0
v 8 5 1
v 8 5 0
v 9 5 0
v 9 5 1
v 0 7 1
v 0 7 0
v 0 6 0
v 0 6 1
v 0 7 1
v 0 6 1
v 1 6 1
v 1 7 1
v 0 6 0
v 0 7 0
v 1 7 0
v 1 6 0
v 1 6 0
v 1 7 0
v 2 7 0
v 2 6 0
v 2 6 0
v 2 7 0
v 3 7 0
v 3 6 0
v 9 6 1
v 9 6 0
v 9 7 0
v 9 7 1
v 8 6 0
v 8 7 0
v 9 7 0
v 9 6 0
v 5 4 4
v 5 3 4
v 6 3 4
v 6 4 4
v 0 8 1
v 0 8 0
v 0 7 0
v 0 7 1
v 0 8 1
v 0 7 1
v 1 7 1
v 1 8 1
v 0 7 0
v 0 8 0
v 1 8 0
v 1 7 0
v 1 8 1
v 1 8 0
v 0 8 0
v 0 8 1
v 1 7 0
v 1 8 0
v 2 8 0
v 2 7 0
v 2 7 0
v 2 8 0
v 3 8 0
v 3 7 0
v 9 7 1
v 9 7 0
v 9 8 0
v 9 8 1
v 8 7 0
v 8 8 0
v 9 8 0
v 9 7 0
v 6 3 4
v 6 2 4
v 7 2 4
v 7 3 4
v 6 2 4
v 6 2 3
v 7 2 3
v 7 2 4
v 1 9 1
v 1 9 0
v 1 8 0
v 1 8 1
v 1 8 0
v 1 9 0
v 2 9 0
v 2 8 0
v 2 8 0
v 2 9 0
v 3 9 0
v 3 8 0
v 9 8 1
v 9 8 0
v 9 9 0
v 9 9 1
v 8 8 0
v 8 9 0
v 9 9 0
v 9 8 0
v 6 7 4
v 6 6 4
v 7 6 4
v 7 7 4
v 0 10 1
v 0 10 0
v 0 9 0
v 0 9 1
v 0 9 0
v 0 10 0
v 1 10 0
v 1 9 0
v 0 9 1
v 0 9 0
v 1 9 0
v 1 9 1
v 1 10 1
v 1 10 0
v 0 10 0
v 0 10 1
v 1 9 0
v 1 10 0
v 2 10 0
v 2 9 0
v 2 10 1
v 2 10 0
v 1 10 0
v 1 10 1
v 2 9 0
v 2 10 0
v 3 10 0
v 3 9 0
v 3 10 1
v 3 10 0
v 2 10 0
v 2 10 1
v 3 9 0
v 3 10 0
v 4 10 0
v 4 9 0
v 4 10 1
v 4 10 0
v 3 10 0
v 3 10 1
v 4 9 0
v 4 10 0
v 5 10 0
v 5 9 0
v 5 10 1
v 5 10 0
v 4 10 0
v 4 10 1
v 5 9 0
v 5 10 0
v 6 10 0
v 6 9 0
v 6 10 1
v 6 10 0
v 5 10 0
v 5 10 1
v 6 9 0
v 6 10 0
v 7 10 0
v 7 9 0
v 7 10 1
v 7 10 0
v 6 10 0
v 6 10 1
v 7 9 0
v 7 10 0
v 8 10 0
v 8 9 0
v 8 10 1
v 8 10 0
v 7 10 0
v 7 10 1
v 9 9 1
v 9 9 0
v 9 10 0
v 9 10 1
v 8 9 0
v 8 10 0
v 9 10 0
v 9 9 0
v 9 10 1
v 9 10 0
v 8 10 0
v 8 10 1
v 7 9 5
v 7 9 4
v 7 10 4
v 7 10 5
v 6 10 5
v 6 9 5
v 7 9 5
v 7 10 5
v 6 9 5
v 6 9 4
v 7 9 4
v 7 9 5
v 7 10 5
v 7 10 4
v 6 10 4
v 6 10 5
v 9 5 4
v 9 5 3
v 9 6 3
v 9 6 4
v 8 6 4
v 8 5 4
v 9 5 4
v 9 6 4
v 8 5 4
v 8 5 3
v 9 5 3
v 9 5 4
v 7 6 4
v 7 5 4
v 8 5 4
v 8 6 4
v 6 6 4
v 6 5 4
v 7 5 4
v 7 6 4
v 6 5 5
v 6 5 4
v 6 6 4
v 6 6 5
v 5 6 5
v 5 5 5
v 6 5 5
v 6 6 5
v 4 6 5
v 4 5 5
v 5 5 5
v 5 6 5
v 5 6 5
v 5 6 4
v 4 6 4
v 4 6 5
v 3 6 5
v 3 5 5
v 4 5 5
v 4 6 5
v 2 6 5
v 2 5 5
v 3 5 5
v 3 6 5
v 1 6 5
v 1 6 4
v 1 5 4
v 1 5 5
v 1 6 5
v 1 5 5
v 2 5 5
v 2 6 5
v 1 5 5
v 1 5 4
v 2 5 4
v 2 5 5
v 5 10 5
v 5 9 5
v 6 9 5
v 6 10 5
v 5 9 5
v 5 9 4
v 6 9 4
v 6 9 5
v 6 10 5
v 6 10 4
v 5 10 4
v 5 10 5
v 1 8 4
v 1 8 3
v 1 7 3
v 1 7 4
v 1 8 4
v 1 7 4
v 2 7 4
v 2 8 4
v 5 3 4
v 5 2 4
v 6 2 4
v 6 3 4
v 5 2 4
v 5 2 3
v 6 2 3
v 6 2 4
v 4 3 4
v 4 2 4
v 5 2 4
v 5 3 4
v 4 2 4
v 4 2 3
v 5 2 3
v 5 2 4
v 8 4 5
v 8 4 4
v 8 5 4
v 8 5 5
v 7 5 5
v 7 4 5
v 8 4 5
v 8 5 5
v 7 4 5
v 7 4 4
v 8 4 4
v 8 4 5
v 8 5 5
v 8 5 4
v 7 5 4
v 7 5 5
v 6 5 5
v 6 4 5
v 7 4 5
v 7 5 5
v 6 4 5
v 6 4 4
v 7 4 4
v 7 4 5
v 7 5 5
v 7 5 4
v 6 5 4
v 6 5 5
v 5 5 5
v 5 4 5
v 6 4 5
v 6 5 5
v 5 4 5
v 5 4 4
v 6 4 4
v 6 4 5
v 4 5 5
v 4 4 5
v 5 4 5
v 5 5 5
v 4 4 5
v 4 4 4
v 5 4 4
v 5 4 5
v 3 5 5
v 3 4 5
v 4 4 5
v 4 5 5
v 3 4 5
v 3 4 4
v 4 4 4
v 4 4 5
v 4 10 5
v 4 9 5
v 5 9 5
v 5 10 5
v 4 9 5
v 4 9 4
v 5 9 4
v 5 9 5
v 5 10 5
v 5 10 4
v 4 10 4
v 4 10 5
v 9 9 4
v 9 9 3
v 9 10 3
v 9 10 4
v 8 10 4
v 8 9 4
v 9 9 4
v 9 10 4
v 9 10 4
v 9 10 3
v 8 10 3
v 8 10 4
v 0 3 2
v 0 3 1
v 0 2 1
v 0 2 2
v 0 3 2
v 0 2 2
v 1 2 2
v 1 3 2
v 0 2 2
v 0 2 1
v 1 2 1
v 1 2 2
v 1 2 2
v 1 2 1
v 2 2 1
v 2 2 2
v 2 2 2
v 2 2 1
v 3 2 1
v 3 2 2
v 3 2 2
v 3 2 1
v 4 2 1
v 4 2 2
v 4 2 2
v 4 2 1
v 5 2 1
v 5 2 2
v 5 2 2
v 5 2 1
v 6 2 1
v 6 2 2
v 6 2 2
v 6 2 1
v 7 2 1
v 7 2 2
v 7 2 1
v 7 3 1
v 8 3 1
v 8 2 1
v 7 2 2
v 7 2 1
v 8 2 1
v 8 2 2
v 9 2 2
v 9 2 1
v 9 3 1
v 9 3 2
v 8 2 1
v 8 3 1
v 9 3 1
v 9 2 1
v 8 2 2
v 8 2 1
v 9 2 1
v 9 2 2
v 9 3 2
v 9 3 1
v 8 3 1
v 8 3 2
v 1 6 4
v 1 6 3
v 1 5 3
v 1 5 4
v 0 4 2
v 0 4 1
v 0 3 1
v 0 3 2
v 0 4 2
v 0 3 2
v 1 3 2
v 1 4 2
v 8 3 2
v 8 3 1
v 8 4 1
v 8 4 2
v 3 3 4
v 3 2 4
v 4 2 4
v 4 3 4
v 3 2 4
v 3 2 3
v 4 2 3
v 4 2 4
v 2 3 4
v 2 2 4
v 3 2 4
v 3 3 4
v 2 2 4
v 2 2 3
v 3 2 3
v 3 2 4
v 0 5 2
v 0 5 1
v 0 4 1
v 0 4 2
v 8 4 2
v 8 4 1
v 8 5 1
v 8 5 2
v 1 3 4
v 1 3 3
v 1 2 3
v 1 2 4
v 1 3 4
v 1 2 4
v 2 2 4
v 2 3 4
v 1 2 4
v 1 2 3
v 2 2 3
v 2 2 4
v 0 6 2
v 0 6 1
v 0 5 1
v 0 5 2
v 0 6 2
v 0 5 2
v 1 5 2
v 1 6 2
v 1 6 2
v 1 6 1
v 0 6 1
v 0 6 2
v 9 5 2
v 9 5 1
v 9 6 1
v 9 6 2
v 8 5 2
v 8 5 1
v 9 5 1
v 9 5 2
v 9 9 3
v 9 9 2
v 9 10 2
v 9 10 3
v 9 10 3
v 9 10 2
v 8 10 2
v 8 10 3
v 0 5 4
v 0 5 3
v 0 4 3
v 0 4 4
v 0 5 4
v 0 4 4
v 1 4 4
v 1 5 4
v 0 4 4
v 0 4 3
v 1 4 3
v 1 4 4
v 1 5 4
v 1 5 3
v 0 5 3
v 0 5 4
v 1 7 2
v 1 7 1
v 1 6 1
v 1 6 2
v 9 6 2
v 9 6 1
v 9 7 1
v 9 7 2
v 8 10 3
v 8 10 2
v 7 10 2
v 7 10 3
v 1 5 4
v 1 4 4
v 2 4 4
v 2 5 4
v 1 8 2
v 1 8 1
v 1 7 1
v 1 7 2
v 9 7 2
v 9 7 1
v 9 8 1
v 9 8 2
v 7 10 3
v 7 10 2
v 6 10 2
v 6 10 3
v 3 10 4
v 3 10 3
v 2 10 3
v 2 10 4
v 1 9 2
v 1 9 1
v 1 8 1
v 1 8 2
v 9 8 2
v 9 8 1
v 9 9 1
v 9 9 2
v 6 10 3
v 6 10 2
v 5 10 2
v 5 10 3
v 0 10 2
v 0 10 1
v 0 9 1
v 0 9 2
v 0 9 2
v 0 9 1
v 1 9 1
v 1 9 2
v 1 10 2
v 1 10 1
v 0 10 1
v 0 10 2
v 2 10 2
v 2 10 1
v 1 10 1
v 1 10 2
v 3 10 2
v 3 10 1
v 2 10 1
v 2 10 2
v 4 10 2
v 4 10 1
v 3 10 1
v 3 10 2
v 5 10 2
v 5 10 1
v 4 10 1
v 4 10 2
v 6 10 2
v 6 10 1
v 5 10 1
v 5 10 2
v 7 10 2
v 7 10 1
v 6 10 1
v 6 10 2
v 8 10 2
v 8 10 1
v 7 10 1
v 7 10 2
v 9 9 2
v 9 9 1
v 9 10 1
v 9 10 2
v 9 10 2
v 9 10 1
v 8 10 1
v 8 10 2
v 5 10 3
v 5 10 2
v 4 10 2
v 4 10 3
v 2 5 5
v 2 5 4
v 2 4 4
v 2 4 5
v 2 5 5
v 2 4 5
v 3 4 5
v 3 5 5
v 2 4 5
v 2 4 4
v 3 4 4
v 3 4 5
v 2 8 4
v 2 7 4
v 3 7 4
v 3 8 4
v 4 10 4
v 4 10 3
v 3 10 3
v 3 10 4
v 4 7 4
v 4 6 4
v 5 6 4
v 5 7 4
v 7 7 4
v 7 6 4
v 8 6 4
v 8 7 4
v 4 10 3
v 4 10 2
v 3 10 2
v 3 10 3
v 8 9 4
v 8 9 3
v 8 8 3
v 8 8 4
v 9 8 4
v 9 8 3
v 9 9 3
v 9 9 4
v 8 9 4
v 8 8 4
v 9 8 4
v 9 9 4
v 4 8 4
v 4 8 3
v 4 9 3
v 4 9 4
v 6 8 4
v 6 7 4
v 7 7 4
v 7 8 4
v 7 8 4
v 7 8 3
v 6 8 3
v 6 8 4
v 0 10 5
v 0 10 4
v 0 9 4
v 0 9 5
v 0 10 5
v 0 9 5
v 1 9 5
v 1 10 5
v 0 9 5
v 0 9 4
v 1 9 4
v 1 9 5
v 1 10 5
v 1 10 4
v 0 10 4
v 0 10 5
v 1 10 5
v 1 9 5
v 2 9 5
v 2 10 5
v 1 9 5
v 1 9 4
v 2 9 4
v 2 9 5
v 2 10 5
v 2 10 4
v 1 10 4
v 1 10 5
v 2 10 5
v 2 9 5
v 3 9 5
v 3 10 5
v 2 9 5
v 2 9 4
v 3 9 4
v 3 9 5
v 3 10 5
v 3 10 4
v 2 10 4
v 2 10 5
v 3 10 5
v 3 9 5
v 4 9 5
v 4 10 5
v 4 10 5
v 4 10 4
v 3 10 4
v 3 10 5
v 4 4 4
v 4 3 4
v 5 3 4
v 5 4 4
v 3 10 3
v 3 10 2
v 2 10 2
v 2 10 3
v 7 10 4
v 7 9 4
v 8 9 4
v 8 10 4
v 7 9 4
v 7 9 3
v 8 9 3
v 8 9 4
v 8 10 4
v 8 10 3
v 7 10 3
v 7 10 4
v 6 9 4
v 6 9 3
v 7 9 3
v 7 9 4
v 7 10 4
v 7 10 3
v 6 10 3
v 6 10 4
v 1 3 3
v 1 3 2
v 1 2 2
v 1 2 3
v 1 2 3
v 1 2 2
v 2 2 2
v 2 2 3
v 2 2 3
v 2 2 2
v 3 2 2
v 3 2 3
v 3 2 3
v 3 2 2
v 4 2 2
v 4 2 3
v 4 2 3
v 4 2 2
v 5 2 2
v 5 2 3
v 5 2 3
v 5 2 2
v 6 2 2
v 6 2 3
v 6 2 3
v 6 2 2
v 7 2 2
v 7 2 3
v 7 2 3
v 7 2 2
v 8 2 2
v 8 2 3
v 9 2 3
v 9 2 2
v 9 3 2
v 9 3 3
v 8 2 3
v 8 2 2
v 9 2 2
v 9 2 3
v 9 3 3
v 9 3 2
v 8 3 2
v 8 3 3
v 2 10 3
v 2 10 2
v 1 10 2
v 1 10 3
v 3 9 5
v 3 9 4
v 3 8 4
v 3 8 5
v 4 8 5
v 4 8 4
v 4 9 4
v 4 9 5
v 3 9 5
v 3 8 5
v 4 8 5
v 4 9 5
v 1 4 3
v 1 4 2
v 1 3 2
v 1 3 3
v 8 3 3
v 8 3 2
v 8 4 2
v 8 4 3
v 0 5 3
v 0 5 2
v 0 4 2
v 0 4 3
v 0 4 3
v 0 4 2
v 1 4 2
v 1 4 3
v 1 5 3
v 1 5 2
v 0 5 2
v 0 5 3
v 8 4 3
v 8 4 2
v 8 5 2
v 8 5 3
v 9 6 4
v 9 6 3
v 9 7 3
v 9 7 4
v 8 7 4
v 8 6 4
v 9 6 4
v 9 7 4
v 0 10 3
v 0 10 2
v 0 9 2
v 0 9 3
v 1 10 3
v 1 10 2
v 0 10 2
v 0 10 3
v 5 8 4
v 5 7 4
v 6 7 4
v 6 8 4
v 6 8 4
v 6 8 3
v 5 8 3
v 5 8 4
v 1 6 3
v 1 6 2
v 1 5 2
v 1 5 3
v 9 5 3
v 9 5 2
v 9 6 2
v 9 6 3
v 8 5 3
v 8 5 2
v 9 5 2
v 9 5 3
v 9 8 3
v 9 8 2
v 9 9 2
v 9 9 3
v 5 8 4
v 5 8 3
v 4 8 3
v 4 8 4
v 1 7 3
v 1 7 2
v 1 6 2
v 1 6 3
v 9 6 3
v 9 6 2
v 9 7 2
v 9 7 3
v 7 9 3
v 7 8 3
v 8 8 3
v 8 9 3
v 7 8 4
v 7 7 4
v 8 7 4
v 8 8 4
v 8 8 4
v 8 8 3
v 7 8 3
v 7 8 4
v 1 8 3
v 1 8 2
v 1 7 2
v 1 7 3
v 9 7 3
v 9 7 2
v 9 8 2
v 9 8 3
v 6 9 3
v 6 8 3
v 7 8 3
v 7 9 3
v 0 9 3
v 0 9 2
v 0 8 2
v 0 8 3
v 0 9 3
v 0 8 3
v 1 8 3
v 1 9 3
v 0 8 2
v 0 9 2
v 1 9 2
v 1 8 2
v 0 8 3
v 0 8 2
v 1 8 2
v 1 8 3
v 4 9 3
v 4 8 3
v 5 8 3
v 5 9 3
v 5 9 3
v 5 8 3
v 6 8 3
v 6 9 3

# faces
f 1/1/2 2/1/2 3/1/2 4/1/2
f 5/1/3 6/1/3 7/1/3 8/1/3
f 9/1/5 10/1/5 11/1/5 12/1/5
f 13/1/6 14/1/6 15/1/6 16/1/6
f 17/1/1 18/1/1 19/1/1 20/1/1
f 21/1/3 22/1/3 23/1/3 24/1/3
f 25/1/2 26/1/2 27/1/2 28/1/2
f 29/1/3 30/1/3 31/1/3 32/1/3
f 33/1/5 34/1/5 35/1/5 36/1/5
f 37/1/6 38/1/6 39/1/6 40/1/6
f 41/1/2 42/1/2 43/1/2 44/1/2
f 45/1/3 46/1/3 47/1/3 48/1/3
f 49/1/4 50/1/4 51/1/4 52/1/4
f 53/1/5 54/1/5 55/1/5 56/1/5
f 57/1/4 58/1/4 59/1/4 60/1/4
f 61/1/5 62/1/5 63/1/5 64/1/5
f 65/1/4 66/1/4 67/1/4 68/1/4
f 69/1/5 70/1/5 71/1/5 72/1/5
f 73/1/2 74/1/2 75/1/2 76/1/2
f 77/1/4 78/1/4 79/1/4 80/1/4
f 81/1/5 82/1/5 83/1/5 84/1/5
f 85/1/3 86/1/3 87/1/3 88/1/3
f 89/1/4 90/1/4 91/1/4 92/1/4
f 93/1/4 94/1/4 95/1/4 96/1/4
f 97/1/4 98/1/4 99/1/4 100/1/4
f 101/1/4 102/1/4 103/1/4 104/1/4
f 105/1/2 106/1/2 107/1/2 108/1/2
f 109/1/4 110/1/4 111/1/4 112/1/4
f 113/1/5 114/1/5 115/1/5 116/1/5
f 117/1/4 118/1/4 119/1/4 120/1/4
f 121/1/4 122/1/4 123/1/4 124/1/4
f 125/1/4 126/1/4 127/1/4 128/1/4
f 129/1/4 130/1/4 131/1/4 132/1/4
f 133/1/2 134/1/2 135/1/2 136/1/2
f 137/1/4 138/1/4 139/1/4 140/1/4
f 141/1/4 142/1/4 143/1/4 144/1/4
f 145/1/4 146/1/4 147/1/4 148/1/4
f 149/1/4 150/1/4 151/1/4 152/1/4
f 153/1/4 154/1/4 155/1/4 156/1/4
f 157/1/4 158/1/4 159/1/4 160/1/4
f 161/1/4 162/1/4 163/1/4 164/1/4
f 165/1/4 166/1/4 167/1/4 168/1/4
f 169/1/4 170/1/4 171/1/4 172/1/4
f 173/1/4 174/1/4 175/1/4 176/1/4
f 177/1/4 178/1/4 179/1/4 180/1/4
f 181/1/4 182/1/4 183/1/4 184/1/4
f 185/1/4 186/1/4 187/1/4 188/1/4
f 189/1/4 190/1/4 191/1/4 192/1/4
f 193/1/4 194/1/4 195/1/4 196/1/4
f 197/1/4 198/1/4 199/1/4 200/1/4
f 201/1/4 202/1/4 203/1/4 204/1/4
f 205/1/4 206/1/4 207/1/4 208/1/4
f 209/1/4 210/1/4 211/1/4 212/1/4
f 213/1/4 214/1/4 215/1/4 216/1/4
f 217/1/4 218/1/4 219/1/4 220/1/4
f 221/1/1 222/1/1 223/1/1 224/1/1
f 225/1/4 226/1/4 227/1/4 228/1/4
f 229/1/5 230/1/5 231/1/5 232/1/5
f 233/1/6 234/1/6 235/1/6 236/1/6
f 237/1/1 238/1/1 239/1/1 240/1/1
f 241/1/2 242/1/2 243/1/2 244/1/2
f 245/1/3 246/1/3 247/1/3 248/1/3
f 249/1/6 250/1/6 251/1/6 252/1/6
f 253/1/1 254/1/1 255/1/1 256/1/1
f 257/1/3 258/1/3 259/1/3 260/1/3
f 261/1/2 262/1/2 263/1/2 264/1/2
f 265/1/3 266/1/3 267/1/3 268/1/3
f 269/1/3 270/1/3 271/1/3 272/1/3
f 273/1/6 274/1/6 275/1/6 276/1/6
f 277/1/6 278/1/6 279/1/6 280/1/6
f 281/1/1 282/1/1 283/1/1 284/1/1
f 285/1/3 286/1/3 287/1/3 288/1/3
f 289/1/3 290/1/3 291/1/3 292/1/3
f 293/1/6 294/1/6 295/1/6 296/1/6
f 297/1/1 298/1/1 299/1/1 300/1/1
f 301/1/3 302/1/3 303/1/3 304/1/3
f 305/1/5 306/1/5 307/1/5 308/1/5
f 309/1/6 310/1/6 311/1/6 312/1/6
f 313/1/5 314/1/5 315/1/5 316/1/5
f 317/1/6 318/1/6 319/1/6 320/1/6
f 321/1/1 322/1/1 323/1/1 324/1/1
f 325/1/5 326/1/5 327/1/5 328/1/5
f 329/1/6 330/1/6 331/1/6 332/1/6
f 333/1/2 334/1/2 335/1/2 336/1/2
f 337/1/1 338/1/1 339/1/1 340/1/1
f 341/1/4 342/1/4 343/1/4 344/1/4
f 345/1/5 346/1/5 347/1/5 348/1/5
f 349/1/4 350/1/4 351/1/4 352/1/4
f 353/1/5 354/1/5 355/1/5 356/1/5
f 357/1/4 358/1/4 359/1/4 360/1/4
f 361/1/5 362/1/5 363/1/5 364/1/5
f 365/1/3 366/1/3 367/1/3 368/1/3
f 369/1/1 370/1/1 371/1/1 372/1/1
f 373/1/4 374/1/4 375/1/4 376/1/4
f 377/1/4 378/1/4 379/1/4 380/1/4
f 381/1/4 382/1/4 383/1/4 384/1/4
f 385/1/3 386/1/3 387/1/3 388/1/3
f 389/1/3 390/1/3 391/1/3 392/1/3
f 393/1/1 394/1/1 395/1/1 396/1/1
f 397/1/4 398/1/4 399/1/4 400/1/4
f 401/1/4 402/1/4 403/1/4 404/1/4
f 405/1/4 406/1/4 407/1/4 408/1/4
f 409/1/2 410/1/2 411/1/2 412/1/2
f 413/1/3 414/1/3 415/1/3 416/1/3
f 417/1/5 418/1/5 419/1/5 420/1/5
f 421/1/6 422/1/6 423/1/6 424/1/6
f 425/1/3 426/1/3 427/1/3 428/1/3
f 429/1/5 430/1/5 431/1/5 432/1/5
f 433/1/1 434/1/1 435/1/1 436/1/1
f 437/1/4 438/1/4 439/1/4 440/1/4
f 441/1/4 442/1/4 443/1/4 444/1/4
f 445/1/4 446/1/4 447/1/4 448/1/4
f 449/1/2 450/1/2 451/1/2 452/1/2
f 453/1/4 454/1/4 455/1/4 456/1/4
f 457/1/5 458/1/5 459/1/5 460/1/5
f 461/1/1 462/1/1 463/1/1 464/1/1
f 465/1/3 466/1/3 467/1/3 468/1/3
f 469/1/4 470/1/4 471/1/4 472/1/4
f 473/1/4 474/1/4 475/1/4 476/1/4
f 477/1/4 478/1/4 479/1/4 480/1/4
f 481/1/2 482/1/2 483/1/2 484/1/2
f 485/1/4 486/1/4 487/1/4 488/1/4
f 489/1/3 490/1/3 491/1/3 492/1/3
f 493/1/1 494/1/1 495/1/1 496/1/1
f 497/1/3 498/1/3 499/1/3 500/1/3
f 501/1/4 502/1/4 503/1/4 504/1/4
f 505/1/6 506/1/6 507/1/6 508/1/6
f 509/1/4 510/1/4 511/1/4 512/1/4
f 513/1/4 514/1/4 515/1/4 516/1/4
f 517/1/2 518/1/2 519/1/2 520/1/2
f 521/1/4 522/1/4 523/1/4 524/1/4
f 525/1/3 526/1/3 527/1/3 528/1/3
f 529/1/5 530/1/5 531/1/5 532/1/5
f 533/1/1 534/1/1 535/1/1 536/1/1
f 537/1/4 538/1/4 539/1/4 540/1/4
f 541/1/4 542/1/4 543/1/4 544/1/4
f 545/1/2 546/1/2 547/1/2 548/1/2
f 549/1/4 550/1/4 551/1/4 552/1/4
f 553/1/3 554/1/3 555/1/3 556/1/3
f 557/1/1 558/1/1 559/1/1 560/1/1
f 561/1/4 562/1/4 563/1/4 564/1/4
f 565/1/5 566/1/5 567/1/5 568/1/5
f 569/1/6 570/1/6 571/1/6 572/1/6
f 573/1/4 574/1/4 575/1/4 576/1/4
f 577/1/6 578/1/6 579/1/6 580/1/6
f 581/1/4 582/1/4 583/1/4 584/1/4
f 585/1/6 586/1/6 587/1/6 588/1/6
f 589/1/4 590/1/4 591/1/4 592/1/4
f 593/1/6 594/1/6 595/1/6 596/1/6
f 597/1/4 598/1/4 599/1/4 600/1/4
f 601/1/6 602/1/6 603/1/6 604/1/6
f 605/1/4 606/1/4 607/1/4 608/1/4
f 609/1/6 610/1/6 611/1/6 612/1/6
f 613/1/4 614/1/4 615/1/4 616/1/4
f 617/1/6 618/1/6 619/1/6 620/1/6
f 621/1/4 622/1/4 623/1/4 624/1/4
f 625/1/6 626/1/6 627/1/6 628/1/6
f 629/1/2 630/1/2 631/1/2 632/1/2
f 633/1/4 634/1/4 635/1/4 636/1/4
f 637/1/6 638/1/6 639/1/6 640/1/6
f 641/1/2 642/1/2 643/1/2 644/1/2
f 645/1/3 646/1/3 647/1/3 648/1/3
f 649/1/5 650/1/5 651/1/5 652/1/5
f 653/1/6 654/1/6 655/1/6 656/1/6
f 657/1/2 658/1/2 659/1/2 660/1/2
f 661/1/3 662/1/3 663/1/3 664/1/3
f 665/1/5 666/1/5 667/1/5 668/1/5
f 669/1/3 670/1/3 671/1/3 672/1/3
f 673/1/3 674/1/3 675/1/3 676/1/3
f 677/1/2 678/1/2 679/1/2 680/1/2
f 681/1/3 682/1/3 683/1/3 684/1/3
f 685/1/3 686/1/3 687/1/3 688/1/3
f 689/1/6 690/1/6 691/1/6 692/1/6
f 693/1/3 694/1/3 695/1/3 696/1/3
f 697/1/3 698/1/3 699/1/3 700/1/3
f 701/1/1 702/1/1 703/1/1 704/1/1
f 705/1/3 706/1/3 707/1/3 708/1/3
f 709/1/5 710/1/5 711/1/5 712/1/5
f 713/1/3 714/1/3 715/1/3 716/1/3
f 717/1/5 718/1/5 719/1/5 720/1/5
f 721/1/6 722/1/6 723/1/6 724/1/6
f 725/1/1 726/1/1 727/1/1 728/1/1
f 729/1/3 730/1/3 731/1/3 732/1/3
f 733/1/3 734/1/3 735/1/3 736/1/3
f 737/1/5 738/1/5 739/1/5 740/1/5
f 741/1/3 742/1/3 743/1/3 744/1/3
f 745/1/5 746/1/5 747/1/5 748/1/5
f 749/1/2 750/1/2 751/1/2 752/1/2
f 753/1/3 754/1/3 755/1/3 756/1/3
f 757/1/5 758/1/5 759/1/5 760/1/5
f 761/1/6 762/1/6 763/1/6 764/1/6
f 765/1/3 766/1/3 767/1/3 768/1/3
f 769/1/5 770/1/5 771/1/5 772/1/5
f 773/1/6 774/1/6 775/1/6 776/1/6
f 777/1/3 778/1/3 779/1/3 780/1/3
f 781/1/5 782/1/5 783/1/5 784/1/5
f 785/1/3 786/1/3 787/1/3 788/1/3
f 789/1/5 790/1/5 791/1/5 792/1/5
f 793/1/3 794/1/3 795/1/3 796/1/3
f 797/1/5 798/1/5 799/1/5 800/1/5
f 801/1/3 802/1/3 803/1/3 804/1/3
f 805/1/5 806/1/5 807/1/5 808/1/5
f 809/1/6 810/1/6 811/1/6 812/1/6
f 813/1/2 814/1/2 815/1/2 816/1/2
f 817/1/3 818/1/3 819/1/3 820/1/3
f 821/1/6 822/1/6 823/1/6 824/1/6
f 825/1/1 826/1/1 827/1/1 828/1/1
f 829/1/3 830/1/3 831/1/3 832/1/3
f 833/1/5 834/1/5 835/1/5 836/1/5
f 837/1/5 838/1/5 839/1/5 840/1/5
f 841/1/5 842/1/5 843/1/5 844/1/5
f 845/1/5 846/1/5 847/1/5 848/1/5
f 849/1/5 850/1/5 851/1/5 852/1/5
f 853/1/5 854/1/5 855/1/5 856/1/5
f 857/1/5 858/1/5 859/1/5 860/1/5
f 861/1/4 862/1/4 863/1/4 864/1/4
f 865/1/5 866/1/5 867/1/5 868/1/5
f 869/1/2 870/1/2 871/1/2 872/1/2
f 873/1/4 874/1/4 875/1/4 876/1/4
f 877/1/5 878/1/5 879/1/5 880/1/5
f 881/1/6 882/1/6 883/1/6 884/1/6
f 885/1/1 886/1/1 887/1/1 888/1/1
f 889/1/1 890/1/1 891/1/1 892/1/1
f 893/1/3 894/1/3 895/1/3 896/1/3
f 897/1/2 898/1/2 899/1/2 900/1/2
f 901/1/3 902/1/3 903/1/3 904/1/3
f 905/1/5 906/1/5 907/1/5 908/1/5
f 909/1/3 910/1/3 911/1/3 912/1/3
f 913/1/5 914/1/5 915/1/5 916/1/5
f 917/1/1 918/1/1 919/1/1 920/1/1
f 921/1/2 922/1/2 923/1/2 924/1/2
f 925/1/1 926/1/1 927/1/1 928/1/1
f 929/1/3 930/1/3 931/1/3 932/1/3
f 933/1/5 934/1/5 935/1/5 936/1/5
f 937/1/1 938/1/1 939/1/1 940/1/1
f 941/1/3 942/1/3 943/1/3 944/1/3
f 945/1/6 946/1/6 947/1/6 948/1/6
f 949/1/2 950/1/2 951/1/2 952/1/2
f 953/1/5 954/1/5 955/1/5 956/1/5
f 957/1/2 958/1/2 959/1/2 960/1/2
f 961/1/6 962/1/6 963/1/6 964/1/6
f 965/1/1 966/1/1 967/1/1 968/1/1
f 969/1/3 970/1/3 971/1/3 972/1/3
f 973/1/5 974/1/5 975/1/5 976/1/5
f 977/1/6 978/1/6 979/1/6 980/1/6
f 981/1/1 982/1/1 983/1/1 984/1/1
f 985/1/2 986/1/2 987/1/2 988/1/2
f 989/1/6 990/1/6 991/1/6 992/1/6
f 993/1/3 994/1/3 995/1/3 996/1/3
f 997/1/1 998/1/1 999/1/1 1000/1/1
f 1001/1/2 1002/1/2 1003/1/2 1004/1/2
f 1005/1/6 1006/1/6 1007/1/6 1008/1/6
f 1009/1/6 1010/1/6 1011/1/6 1012/1/6
f 1013/1/1 1014/1/1 1015/1/1 1016/1/1
f 1017/1/2 1018/1/2 1019/1/2 1020/1/2
f 1021/1/6 1022/1/6 1023/1/6 1024/1/6
f 1025/1/1 1026/1/1 1027/1/1 1028/1/1
f 1029/1/5 1030/1/5 1031/1/5 1032/1/5
f 1033/1/6 1034/1/6 1035/1/6 1036/1/6
f 1037/1/6 1038/1/6 1039/1/6 1040/1/6
f 1041/1/6 1042/1/6 1043/1/6 1044/1/6
f 1045/1/6 1046/1/6 1047/1/6 1048/1/6
f 1049/1/6 1050/1/6 1051/1/6 1052/1/6
f 1053/1/6 1054/1/6 1055/1/6 1056/1/6
f 1057/1/6 1058/1/6 1059/1/6 1060/1/6
f 1061/1/6 1062/1/6 1063/1/6 1064/1/6
f 1065/1/2 1066/1/2 1067/1/2 1068/1/2
f 1069/1/6 1070/1/6 1071/1/6 1072/1/6
f 1073/1/6 1074/1/6 1075/1/6 1076/1/6
f 1077/1/1 1078/1/1 1079/1/1 1080/1/1
f 1081/1/3 1082/1/3 1083/1/3 1084/1/3
f 1085/1/5 1086/1/5 1087/1/5 1088/1/5
f 1089/1/3 1090/1/3 1091/1/3 1092/1/3
f 1093/1/6 1094/1/6 1095/1/6 1096/1/6
f 1097/1/3 1098/1/3 1099/1/3 1100/1/3
f 1101/1/3 1102/1/3 1103/1/3 1104/1/3
f 1105/1/6 1106/1/6 1107/1/6 1108/1/6
f 1109/1/1 1110/1/1 1111/1/1 1112/1/1
f 1113/1/2 1114/1/2 1115/1/2 1116/1/2
f 1117/1/3 1118/1/3 1119/1/3 1120/1/3
f 1121/1/2 1122/1/2 1123/1/2 1124/1/2
f 1125/1/3 1126/1/3 1127/1/3 1128/1/3
f 1129/1/6 1130/1/6 1131/1/6 1132/1/6
f 1133/1/1 1134/1/1 1135/1/1 1136/1/1
f 1137/1/3 1138/1/3 1139/1/3 1140/1/3
f 1141/1/5 1142/1/5 1143/1/5 1144/1/5
f 1145/1/6 1146/1/6 1147/1/6 1148/1/6
f 1149/1/3 1150/1/3 1151/1/3 1152/1/3
f 1153/1/5 1154/1/5 1155/1/5 1156/1/5
f 1157/1/6 1158/1/6 1159/1/6 1160/1/6
f 1161/1/3 1162/1/3 1163/1/3 1164/1/3
f 1165/1/5 1166/1/5 1167/1/5 1168/1/5
f 1169/1/6 1170/1/6 1171/1/6 1172/1/6
f 1173/1/3 1174/1/3 1175/1/3 1176/1/3
f 1177/1/6 1178/1/6 1179/1/6 1180/1/6
f 1181/1/3 1182/1/3 1183/1/3 1184/1/3
f 1185/1/6 1186/1/6 1187/1/6 1188/1/6
f 1189/1/3 1190/1/3 1191/1/3 1192/1/3
f 1193/1/5 1194/1/5 1195/1/5 1196/1/5
f 1197/1/6 1198/1/6 1199/1/6 1200/1/6
f 1201/1/5 1202/1/5 1203/1/5 1204/1/5
f 1205/1/6 1206/1/6 1207/1/6 1208/1/6
f 1209/1/1 1210/1/1 1211/1/1 1212/1/1
f 1213/1/5 1214/1/5 1215/1/5 1216/1/5
f 1217/1/5 1218/1/5 1219/1/5 1220/1/5
f 1221/1/5 1222/1/5 1223/1/5 1224/1/5
f 1225/1/5 1226/1/5 1227/1/5 1228/1/5
f 1229/1/5 1230/1/5 1231/1/5 1232/1/5
f 1233/1/5 1234/1/5 1235/1/5 1236/1/5
f 1237/1/5 1238/1/5 1239/1/5 1240/1/5
f 1241/1/2 1242/1/2 1243/1/2 1244/1/2
f 1245/1/5 1246/1/5 1247/1/5 1248/1/5
f 1249/1/6 1250/1/6 1251/1/6 1252/1/6
f 1253/1/6 1254/1/6 1255/1/6 1256/1/6
f 1257/1/1 1258/1/1 1259/1/1 1260/1/1
f 1261/1/2 1262/1/2 1263/1/2 1264/1/2
f 1265/1/3 1266/1/3 1267/1/3 1268/1/3
f 1269/1/1 1270/1/1 1271/1/1 1272/1/1
f 1273/1/2 1274/1/2 1275/1/2 1276/1/2
f 1277/1/1 1278/1/1 1279/1/1 1280/1/1
f 1281/1/5 1282/1/5 1283/1/5 1284/1/5
f 1285/1/6 1286/1/6 1287/1/6 1288/1/6
f 1289/1/2 1290/1/2 1291/1/2 1292/1/2
f 1293/1/2 1294/1/2 1295/1/2 1296/1/2
f 1297/1/3 1298/1/3 1299/1/3 1300/1/3
f 1301/1/1 1302/1/1 1303/1/1 1304/1/1
f 1305/1/6 1306/1/6 1307/1/6 1308/1/6
f 1309/1/3 1310/1/3 1311/1/3 1312/1/3
f 1313/1/6 1314/1/6 1315/1/6 1316/1/6
f 1317/1/1 1318/1/1 1319/1/1 1320/1/1
f 1321/1/2 1322/1/2 1323/1/2 1324/1/2
f 1325/1/5 1326/1/5 1327/1/5 1328/1/5
f 1329/1/2 1330/1/2 1331/1/2 1332/1/2
f 1333/1/6 1334/1/6 1335/1/6 1336/1/6
f 1337/1/1 1338/1/1 1339/1/1 1340/1/1
f 1341/1/2 1342/1/2 1343/1/2 1344/1/2
f 1345/1/3 1346/1/3 1347/1/3 1348/1/3
f 1349/1/3 1350/1/3 1351/1/3 1352/1/3
f 1353/1/6 1354/1/6 1355/1/6 1356/1/6
f 1357/1/1 1358/1/1 1359/1/1 1360/1/1
f 1361/1/2 1362/1/2 1363/1/2 1364/1/2
f 1365/1/3 1366/1/3 1367/1/3 1368/1/3
f 1369/1/1 1370/1/1 1371/1/1 1372/1/1
f 1373/1/3 1374/1/3 1375/1/3 1376/1/3
f 1377/1/4 1378/1/4 1379/1/4 1380/1/4
f 1381/1/5 1382/1/5 1383/1/5 1384/1/5
f 1385/1/3 1386/1/3 1387/1/3 1388/1/3
f 1389/1/3 1390/1/3 1391/1/3 1392/1/3


