# shivshank's .obj optimizer

# normals
vn -1 0 0
vn 1 0 0
vn 0 0 1
vn 0 0 -1
vn 0 -1 0
vn 0 1 0

# texcoords
vt 0.279296875 0.5

# verts
v 3 2 1
v 3 2 0
v 3 1 0
v 3 1 1
v 3 2 1
v 3 1 1
v 4 1 1
v 4 2 1
v 3 1 0
v 3 2 0
v 4 2 0
v 4 1 0
v 3 1 1
v 3 1 0
v 4 1 0
v 4 1 1
v 5 1 1
v 5 1 0
v 5 2 0
v 5 2 1
v 4 2 1
v 4 1 1
v 5 1 1
v 5 2 1
v 4 1 0
v 4 2 0
v 5 2 0
v 5 1 0
v 4 1 1
v 4 1 0
v 5 1 0
v 5 1 1
v 3 3 1
v 3 3 0
v 3 2 0
v 3 2 1
v 3 3 1
v 3 2 1
v 4 2 1
v 4 3 1
v 3 2 0
v 3 3 0
v 4 3 0
v 4 2 0
v 5 2 1
v 5 2 0
v 5 3 0
v 5 3 1
v 4 3 1
v 4 2 1
v 5 2 1
v 5 3 1
v 4 2 0
v 4 3 0
v 5 3 0
v 5 2 0
v 3 4 1
v 3 4 0
v 3 3 0
v 3 3 1
v 3 4 1
v 3 3 1
v 4 3 1
v 4 4 1
v 3 3 0
v 3 4 0
v 4 4 0
v 4 3 0
v 5 3 1
v 5 3 0
v 5 4 0
v 5 4 1
v 4 4 1
v 4 3 1
v 5 3 1
v 5 4 1
v 4 3 0
v 4 4 0
v 5 4 0
v 5 3 0
v 3 5 1
v 3 5 0
v 3 4 0
v 3 4 1
v 3 5 1
v 3 4 1
v 4 4 1
v 4 5 1
v 3 4 0
v 3 5 0
v 4 5 0
v 4 4 0
v 5 4 1
v 5 4 0
v 5 5 0
v 5 5 1
v 4 5 1
v 4 4 1
v 5 4 1
v 5 5 1
v 4 4 0
v 4 5 0
v 5 5 0
v 5 4 0
v 3 6 1
v 3 6 0
v 3 5 0
v 3 5 1
v 3 6 1
v 3 5 1
v 4 5 1
v 4 6 1
v 3 5 0
v 3 6 0
v 4 6 0
v 4 5 0
v 5 5 1
v 5 5 0
v 5 6 0
v 5 6 1
v 4 6 1
v 4 5 1
v 5 5 1
v 5 6 1
v 4 5 0
v 4 6 0
v 5 6 0
v 5 5 0
v 3 7 1
v 3 7 0
v 3 6 0
v 3 6 1
v 3 7 1
v 3 6 1
v 4 6 1
v 4 7 1
v 3 6 0
v 3 7 0
v 4 7 0
v 4 6 0
v 5 6 1
v 5 6 0
v 5 7 0
v 5 7 1
v 4 7 1
v 4 6 1
v 5 6 1
v 5 7 1
v 4 6 0
v 4 7 0
v 5 7 0
v 5 6 0
v 3 8 1
v 3 8 0
v 3 7 0
v 3 7 1
v 3 8 1
v 3 7 1
v 4 7 1
v 4 8 1
v 3 7 0
v 3 8 0
v 4 8 0
v 4 7 0
v 5 7 1
v 5 7 0
v 5 8 0
v 5 8 1
v 4 8 1
v 4 7 1
v 5 7 1
v 5 8 1
v 4 7 0
v 4 8 0
v 5 8 0
v 5 7 0
v 3 9 1
v 3 9 0
v 3 8 0
v 3 8 1
v 3 9 1
v 3 8 1
v 4 8 1
v 4 9 1
v 3 8 0
v 3 9 0
v 4 9 0
v 4 8 0
v 5 8 1
v 5 8 0
v 5 9 0
v 5 9 1
v 4 9 1
v 4 8 1
v 5 8 1
v 5 9 1
v 4 8 0
v 4 9 0
v 5 9 0
v 5 8 0
v 3 10 1
v 3 10 0
v 3 9 0
v 3 9 1
v 3 10 1
v 3 9 1
v 4 9 1
v 4 10 1
v 3 9 0
v 3 10 0
v 4 10 0
v 4 9 0
v 4 10 1
v 4 10 0
v 3 10 0
v 3 10 1
v 5 9 1
v 5 9 0
v 5 10 0
v 5 10 1
v 4 10 1
v 4 9 1
v 5 9 1
v 5 10 1
v 4 9 0
v 4 10 0
v 5 10 0
v 5 9 0
v 5 10 1
v 5 10 0
v 4 10 0
v 4 10 1

# faces
f 1/1/1 2/1/1 3/1/1 4/1/1
f 5/1/3 6/1/3 7/1/3 8/1/3
f 9/1/4 10/1/4 11/1/4 12/1/4
f 13/1/5 14/1/5 15/1/5 16/1/5
f 17/1/2 18/1/2 19/1/2 20/1/2
f 21/1/3 22/1/3 23/1/3 24/1/3
f 25/1/4 26/1/4 27/1/4 28/1/4
f 29/1/5 30/1/5 31/1/5 32/1/5
f 33/1/1 34/1/1 35/1/1 36/1/1
f 37/1/3 38/1/3 39/1/3 40/1/3
f 41/1/4 42/1/4 43/1/4 44/1/4
f 45/1/2 46/1/2 47/1/2 48/1/2
f 49/1/3 50/1/3 51/1/3 52/1/3
f 53/1/4 54/1/4 55/1/4 56/1/4
f 57/1/1 58/1/1 59/1/1 60/1/1
f 61/1/3 62/1/3 63/1/3 64/1/3
f 65/1/4 66/1/4 67/1/4 68/1/4
f 69/1/2 70/1/2 71/1/2 72/1/2
f 73/1/3 74/1/3 75/1/3 76/1/3
f 77/1/4 78/1/4 79/1/4 80/1/4
f 81/1/1 82/1/1 83/1/1 84/1/1
f 85/1/3 86/1/3 87/1/3 88/1/3
f 89/1/4 90/1/4 91/1/4 92/1/4
f 93/1/2 94/1/2 95/1/2 96/1/2
f 97/1/3 98/1/3 99/1/3 100/1/3
f 101/1/4 102/1/4 103/1/4 104/1/4
f 105/1/1 106/1/1 107/1/1 108/1/1
f 109/1/3 110/1/3 111/1/3 112/1/3
f 113/1/4 114/1/4 115/1/4 116/1/4
f 117/1/2 118/1/2 119/1/2 120/1/2
f 121/1/3 122/1/3 123/1/3 124/1/3
f 125/1/4 126/1/4 127/1/4 128/1/4
f 129/1/1 130/1/1 131/1/1 132/1/1
f 133/1/3 134/1/3 135/1/3 136/1/3
f 137/1/4 138/1/4 139/1/4 140/1/4
f 141/1/2 142/1/2 143/1/2 144/1/2
f 145/1/3 146/1/3 147/1/3 148/1/3
f 149/1/4 150/1/4 151/1/4 152/1/4
f 153/1/1 154/1/1 155/1/1 156/1/1
f 157/1/3 158/1/3 159/1/3 160/1/3
f 161/1/4 162/1/4 163/1/4 164/1/4
f 165/1/2 166/1/2 167/1/2 168/1/2
f 169/1/3 170/1/3 171/1/3 172/1/3
f 173/1/4 174/1/4 175/1/4 176/1/4
f 177/1/1 178/1/1 179/1/1 180/1/1
f 181/1/3 182/1/3 183/1/3 184/1/3
f 185/1/4 186/1/4 187/1/4 188/1/4
f 189/1/2 190/1/2 191/1/2 192/1/2
f 193/1/3 194/1/3 195/1/3 196/1/3
f 197/1/4 198/1/4 199/1/4 200/1/4
f 201/1/1 202/1/1 203/1/1 204/1/1
f 205/1/3 206/1/3 207/1/3 208/1/3
f 209/1/4 210/1/4 211/1/4 212/1/4
f 213/1/6 214/1/6 215/1/6 216/1/6
f 217/1/2 218/1/2 219/1/2 220/1/2
f 221/1/3 222/1/3 223/1/3 224/1/3
f 225/1/4 226/1/4 227/1/4 228/1/4
f 229/1/6 230/1/6 231/1/6 232/1/6


