# shivshank's .obj optimizer

# normals
vn -1 0 0
vn 1 0 0
vn 0 0 1
vn 0 0 -1
vn 0 -1 0
vn 0 1 0

# texcoords
vt 0.279296875 0.5
vt 0.912109375 0.5

# verts
v 4 5 2
v 4 5 1
v 4 4 1
v 4 4 2
v 5 4 2
v 5 4 1
v 5 5 1
v 5 5 2
v 4 4 2
v 4 4 1
v 5 4 1
v 5 4 2
v 5 5 2
v 5 5 1
v 4 5 1
v 4 5 2
v 4 5 3
v 4 5 2
v 4 4 2
v 4 4 3
v 5 4 3
v 5 4 2
v 5 5 2
v 5 5 3
v 4 4 3
v 4 4 2
v 5 4 2
v 5 4 3
v 5 5 3
v 5 5 2
v 4 5 2
v 4 5 3
v 4 5 4
v 4 5 3
v 4 4 3
v 4 4 4
v 5 4 4
v 5 4 3
v 5 5 3
v 5 5 4
v 4 4 4
v 4 4 3
v 5 4 3
v 5 4 4
v 5 5 4
v 5 5 3
v 4 5 3
v 4 5 4
v 4 5 5
v 4 5 4
v 4 4 4
v 4 4 5
v 5 4 5
v 5 4 4
v 5 5 4
v 5 5 5
v 4 4 5
v 4 4 4
v 5 4 4
v 5 4 5
v 5 5 5
v 5 5 4
v 4 5 4
v 4 5 5
v 4 5 6
v 4 5 5
v 4 4 5
v 4 4 6
v 5 4 6
v 5 4 5
v 5 5 5
v 5 5 6
v 4 4 6
v 4 4 5
v 4 3 5
v 4 3 6
v 5 3 6
v 5 3 5
v 5 4 5
v 5 4 6
v 4 3 5
v 4 4 5
v 5 4 5
v 5 3 5
v 4 6 6
v 4 6 5
v 4 5 5
v 4 5 6
v 5 5 6
v 5 5 5
v 5 6 5
v 5 6 6
v 4 5 5
v 4 6 5
v 5 6 5
v 5 5 5
v 4 7 6
v 4 7 5
v 4 6 5
v 4 6 6
v 5 6 6
v 5 6 5
v 5 7 5
v 5 7 6
v 4 7 6
v 4 6 6
v 5 6 6
v 5 7 6
v 4 6 5
v 4 7 5
v 5 7 5
v 5 6 5
v 5 7 6
v 5 7 5
v 4 7 5
v 4 7 6
v 4 3 6
v 4 3 5
v 4 2 5
v 4 2 6
v 5 2 6
v 5 2 5
v 5 3 5
v 5 3 6
v 4 3 6
v 4 2 6
v 5 2 6
v 5 3 6
v 4 2 5
v 4 3 5
v 5 3 5
v 5 2 5
v 4 2 6
v 4 2 5
v 5 2 5
v 5 2 6
v 4 2 5
v 4 2 4
v 4 1 4
v 4 1 5
v 5 1 5
v 5 1 4
v 5 2 4
v 5 2 5
v 4 2 5
v 4 1 5
v 5 1 5
v 5 2 5
v 4 1 4
v 4 2 4
v 5 2 4
v 5 1 4
v 4 1 5
v 4 1 4
v 5 1 4
v 5 1 5
v 5 2 5
v 5 2 4
v 4 2 4
v 4 2 5
v 4 8 5
v 4 8 4
v 4 7 4
v 4 7 5
v 5 7 5
v 5 7 4
v 5 8 4
v 5 8 5
v 4 8 5
v 4 7 5
v 5 7 5
v 5 8 5
v 4 7 4
v 4 8 4
v 5 8 4
v 5 7 4
v 4 7 5
v 4 7 4
v 5 7 4
v 5 7 5
v 5 8 5
v 5 8 4
v 4 8 4
v 4 8 5
v 4 5 1
v 4 5 0
v 4 4 0
v 4 4 1
v 5 4 1
v 5 4 0
v 5 5 0
v 5 5 1
v 4 4 0
v 4 5 0
v 5 5 0
v 5 4 0
v 4 4 1
v 4 4 0
v 5 4 0
v 5 4 1
v 5 5 1
v 5 5 0
v 4 5 0
v 4 5 1
v 4 4 7
v 4 4 6
v 4 3 6
v 4 3 7
v 5 3 7
v 5 3 6
v 5 4 6
v 5 4 7
v 4 4 7
v 4 3 7
v 5 3 7
v 5 4 7
v 4 3 7
v 4 3 6
v 5 3 6
v 5 3 7
v 4 5 7
v 4 5 6
v 4 4 6
v 4 4 7
v 5 4 7
v 5 4 6
v 5 5 6
v 5 5 7
v 4 5 7
v 4 4 7
v 5 4 7
v 5 5 7
v 4 6 7
v 4 6 6
v 4 5 6
v 4 5 7
v 5 5 7
v 5 5 6
v 5 6 6
v 5 6 7
v 4 6 7
v 4 5 7
v 5 5 7
v 5 6 7
v 5 6 7
v 5 6 6
v 4 6 6
v 4 6 7

# faces
f 1/1/1 2/1/1 3/1/1 4/1/1
f 5/1/2 6/1/2 7/1/2 8/1/2
f 9/1/5 10/1/5 11/1/5 12/1/5
f 13/1/6 14/1/6 15/1/6 16/1/6
f 17/1/1 18/1/1 19/1/1 20/1/1
f 21/1/2 22/1/2 23/1/2 24/1/2
f 25/1/5 26/1/5 27/1/5 28/1/5
f 29/1/6 30/1/6 31/1/6 32/1/6
f 33/1/1 34/1/1 35/1/1 36/1/1
f 37/1/2 38/1/2 39/1/2 40/1/2
f 41/1/5 42/1/5 43/1/5 44/1/5
f 45/1/6 46/1/6 47/1/6 48/1/6
f 49/1/1 50/1/1 51/1/1 52/1/1
f 53/1/2 54/1/2 55/1/2 56/1/2
f 57/1/5 58/1/5 59/1/5 60/1/5
f 61/1/6 62/1/6 63/1/6 64/1/6
f 65/1/1 66/1/1 67/1/1 68/1/1
f 69/1/2 70/1/2 71/1/2 72/1/2
f 73/2/1 74/2/1 75/2/1 76/2/1
f 77/2/2 78/2/2 79/2/2 80/2/2
f 81/2/4 82/2/4 83/2/4 84/2/4
f 85/2/1 86/2/1 87/2/1 88/2/1
f 89/2/2 90/2/2 91/2/2 92/2/2
f 93/2/4 94/2/4 95/2/4 96/2/4
f 97/2/1 98/2/1 99/2/1 100/2/1
f 101/2/2 102/2/2 103/2/2 104/2/2
f 105/2/3 106/2/3 107/2/3 108/2/3
f 109/2/4 110/2/4 111/2/4 112/2/4
f 113/2/6 114/2/6 115/2/6 116/2/6
f 117/2/1 118/2/1 119/2/1 120/2/1
f 121/2/2 122/2/2 123/2/2 124/2/2
f 125/2/3 126/2/3 127/2/3 128/2/3
f 129/2/4 130/2/4 131/2/4 132/2/4
f 133/2/5 134/2/5 135/2/5 136/2/5
f 137/2/1 138/2/1 139/2/1 140/2/1
f 141/2/2 142/2/2 143/2/2 144/2/2
f 145/2/3 146/2/3 147/2/3 148/2/3
f 149/2/4 150/2/4 151/2/4 152/2/4
f 153/2/5 154/2/5 155/2/5 156/2/5
f 157/2/6 158/2/6 159/2/6 160/2/6
f 161/2/1 162/2/1 163/2/1 164/2/1
f 165/2/2 166/2/2 167/2/2 168/2/2
f 169/2/3 170/2/3 171/2/3 172/2/3
f 173/2/4 174/2/4 175/2/4 176/2/4
f 177/2/5 178/2/5 179/2/5 180/2/5
f 181/2/6 182/2/6 183/2/6 184/2/6
f 185/1/1 186/1/1 187/1/1 188/1/1
f 189/1/2 190/1/2 191/1/2 192/1/2
f 193/1/4 194/1/4 195/1/4 196/1/4
f 197/1/5 198/1/5 199/1/5 200/1/5
f 201/1/6 202/1/6 203/1/6 204/1/6
f 205/2/1 206/2/1 207/2/1 208/2/1
f 209/2/2 210/2/2 211/2/2 212/2/2
f 213/2/3 214/2/3 215/2/3 216/2/3
f 217/2/5 218/2/5 219/2/5 220/2/5
f 221/2/1 222/2/1 223/2/1 224/2/1
f 225/2/2 226/2/2 227/2/2 228/2/2
f 229/2/3 230/2/3 231/2/3 232/2/3
f 233/2/1 234/2/1 235/2/1 236/2/1
f 237/2/2 238/2/2 239/2/2 240/2/2
f 241/2/3 242/2/3 243/2/3 244/2/3
f 245/2/6 246/2/6 247/2/6 248/2/6


