# MagicaVoxel @ Ephtracy

# group
o 

# material
mtllib Stan54goda (1).mtl
usemtl palette

# normals
vn -1 0 0
vn 1 0 0
vn 0 0 1
vn 0 0 -1
vn 0 -1 0
vn 0 1 0

# texcoords
vt 0.0566406 0.5
vt 0.0644531 0.5
vt 0.0917969 0.5
vt 0.306641 0.5
vt 0.677734 0.5
vt 0.830078 0.5
vt 0.833984 0.5
vt 0.912109 0.5
vt 0.916016 0.5
vt 0.919922 0.5
vt 0.994141 0.5

# verts
v 0 2 -0.3
v 0 2 -0.5
v 0 2 -0.6
v 0 2 -0.8
v 0 2.1 -0.3
v 0 2.1 -0.5
v 0 2.1 -0.6
v 0 2.1 -0.8
v 0 2.2 -0.3
v 0 2.2 -0.5
v 0 2.2 -0.6
v 0 2.2 -0.8
v 0 2.4 -0.3
v 0 2.4 -0.5
v 0 2.4 -0.6
v 0 2.4 -0.8
v 0 2.6 0
v 0 2.6 -0.1
v 0 2.6 -0.2
v 0 2.6 -0.3
v 0 2.6 -0.5
v 0 2.6 -0.6
v 0 2.6 -0.8
v 0 2.6 -0.9
v 0 2.6 -1
v 0 2.6 -1.1
v 0 2.7 0
v 0 2.7 -0.1
v 0 2.7 -1
v 0 2.7 -1.1
v 0 2.8 -0.2
v 0 2.8 -0.9
v 0 2.9 -0.3
v 0 2.9 -0.5
v 0 3.1 -0.3
v 0 3.1 -0.5
v 0 3.2 -0.1
v 0 3.2 -0.2
v 0 3.2 -0.9
v 0 3.2 -1
v 0 3.3 0
v 0 3.3 -0.5
v 0 3.3 -0.6
v 0 3.3 -1.1
v 0 3.4 -0.3
v 0 3.4 -0.5
v 0 3.4 -0.6
v 0 3.4 -0.8
v 0 3.5 -0.3
v 0 3.5 -0.4
v 0 3.5 -0.5
v 0 3.5 -0.6
v 0 3.5 -0.7
v 0 3.5 -0.8
v 0 3.6 -0.3
v 0 3.6 -0.4
v 0 3.6 -0.5
v 0 3.6 -0.6
v 0 3.6 -0.7
v 0 3.6 -0.8
v 0 3.7 -0.4
v 0 3.7 -0.5
v 0 3.7 -0.7
v 0 3.7 -0.8
v 0 3.8 -0.2
v 0 3.8 -0.3
v 0 3.8 -0.5
v 0 3.8 -0.6
v 0 3.8 -0.8
v 0 3.8 -0.9
v 0 3.9 -0.2
v 0 3.9 -0.3
v 0 3.9 -0.8
v 0 3.9 -0.9
v 0 4 -0.4
v 0 4 -0.5
v 0 4 -0.7
v 0 4 -0.8
v 0 4.1 -0.3
v 0 4.1 -0.4
v 0 4.1 -0.5
v 0 4.1 -0.7
v 0.2 2 -0.3
v 0.2 2 -0.5
v 0.2 2 -0.6
v 0.2 2 -0.8
v 0.2 2.2 -0.3
v 0.2 2.2 -0.5
v 0.2 2.2 -0.6
v 0.2 2.2 -0.8
v 0.2 2.4 -0.3
v 0.2 2.4 -0.5
v 0.2 2.4 -0.6
v 0.2 2.4 -0.8
v 0.2 2.6 0
v 0.2 2.6 -0.1
v 0.2 2.6 -0.2
v 0.2 2.6 -0.3
v 0.2 2.6 -0.5
v 0.2 2.6 -0.6
v 0.2 2.6 -0.8
v 0.2 2.6 -0.9
v 0.2 2.6 -1
v 0.2 2.6 -1.1
v 0.2 2.7 0
v 0.2 2.7 -0.1
v 0.2 2.7 -1
v 0.2 2.7 -1.1
v 0.2 2.8 -0.2
v 0.2 2.8 -0.9
v 0.2 3.2 -0.1
v 0.2 3.2 -0.2
v 0.2 3.2 -0.9
v 0.2 3.2 -1
v 0.2 3.3 0
v 0.2 3.3 -0.5
v 0.2 3.3 -0.6
v 0.2 3.3 -1.1
v 0.2 3.4 -0.3
v 0.2 3.4 -0.5
v 0.2 3.4 -0.6
v 0.2 3.4 -0.8
v 0.2 3.8 -0.2
v 0.2 3.8 -0.3
v 0.2 3.8 -0.8
v 0.2 3.8 -0.9
v 0.2 3.9 -0.2
v 0.2 3.9 -0.3
v 0.2 3.9 -0.8
v 0.2 3.9 -0.9
v 0.2 4 -0.4
v 0.2 4 -0.5
v 0.2 4 -0.7
v 0.2 4 -0.8
v 0.2 4.1 -0.3
v 0.2 4.1 -0.4
v 0.2 4.1 -0.5
v 0.2 4.1 -0.7
v 0 2.6 0
v 0 2.7 0
v 0 3.3 0
v 0.2 2.6 0
v 0.2 2.7 0
v 0.2 3.3 0
v 0 2.6 -0.2
v 0 2.8 -0.2
v 0 3.2 -0.2
v 0 3.8 -0.2
v 0 3.9 -0.2
v 0.2 2.6 -0.2
v 0.2 2.8 -0.2
v 0.2 3.2 -0.2
v 0.2 3.8 -0.2
v 0.2 3.9 -0.2
v 0 2 -0.3
v 0 2.1 -0.3
v 0 2.2 -0.3
v 0 2.4 -0.3
v 0 2.6 -0.3
v 0 3.4 -0.3
v 0 3.5 -0.3
v 0 3.6 -0.3
v 0 3.8 -0.3
v 0 3.9 -0.3
v 0 4.1 -0.3
v 0.1 2.1 -0.3
v 0.1 2.2 -0.3
v 0.1 3.4 -0.3
v 0.1 3.5 -0.3
v 0.1 3.6 -0.3
v 0.1 3.8 -0.3
v 0.2 2 -0.3
v 0.2 2.2 -0.3
v 0.2 2.4 -0.3
v 0.2 2.6 -0.3
v 0.2 3.4 -0.3
v 0.2 3.8 -0.3
v 0.2 3.9 -0.3
v 0.2 4.1 -0.3
v 0 3.3 -0.5
v 0 3.4 -0.5
v 0 4 -0.5
v 0 4.1 -0.5
v 0.1 3.4 -0.5
v 0.2 3.3 -0.5
v 0.2 3.4 -0.5
v 0.2 4 -0.5
v 0.2 4.1 -0.5
v 0 2 -0.6
v 0 2.1 -0.6
v 0 2.2 -0.6
v 0 2.4 -0.6
v 0 2.6 -0.6
v 0.1 2.1 -0.6
v 0.1 2.2 -0.6
v 0.2 2 -0.6
v 0.2 2.2 -0.6
v 0.2 2.4 -0.6
v 0.2 2.6 -0.6
v 0 2.6 -1
v 0 2.7 -1
v 0 3.2 -1
v 0.2 2.6 -1
v 0.2 2.7 -1
v 0.2 3.2 -1
v 0 2.6 -0.1
v 0 2.7 -0.1
v 0 3.2 -0.1
v 0.2 2.6 -0.1
v 0.2 2.7 -0.1
v 0.2 3.2 -0.1
v 0 4 -0.4
v 0 4.1 -0.4
v 0.2 4 -0.4
v 0.2 4.1 -0.4
v 0 2 -0.5
v 0 2.1 -0.5
v 0 2.2 -0.5
v 0 2.4 -0.5
v 0 2.6 -0.5
v 0.1 2.1 -0.5
v 0.1 2.2 -0.5
v 0.2 2 -0.5
v 0.2 2.2 -0.5
v 0.2 2.4 -0.5
v 0.2 2.6 -0.5
v 0 3.3 -0.6
v 0 3.4 -0.6
v 0.1 3.4 -0.6
v 0.2 3.3 -0.6
v 0.2 3.4 -0.6
v 0 4 -0.7
v 0 4.1 -0.7
v 0.2 4 -0.7
v 0.2 4.1 -0.7
v 0 2 -0.8
v 0 2.1 -0.8
v 0 2.2 -0.8
v 0 2.4 -0.8
v 0 2.6 -0.8
v 0 3.4 -0.8
v 0 3.5 -0.8
v 0 3.6 -0.8
v 0 3.7 -0.8
v 0 3.8 -0.8
v 0 3.9 -0.8
v 0 4 -0.8
v 0.1 2.1 -0.8
v 0.1 2.2 -0.8
v 0.1 3.4 -0.8
v 0.1 3.5 -0.8
v 0.1 3.6 -0.8
v 0.1 3.7 -0.8
v 0.1 3.8 -0.8
v 0.2 2 -0.8
v 0.2 2.2 -0.8
v 0.2 2.4 -0.8
v 0.2 2.6 -0.8
v 0.2 3.4 -0.8
v 0.2 3.8 -0.8
v 0.2 3.9 -0.8
v 0.2 4 -0.8
v 0 2.6 -0.9
v 0 2.8 -0.9
v 0 3.2 -0.9
v 0 3.8 -0.9
v 0 3.9 -0.9
v 0.2 2.6 -0.9
v 0.2 2.8 -0.9
v 0.2 3.2 -0.9
v 0.2 3.8 -0.9
v 0.2 3.9 -0.9
v 0 2.6 -1.1
v 0 2.7 -1.1
v 0 3.3 -1.1
v 0.2 2.6 -1.1
v 0.2 2.7 -1.1
v 0.2 3.3 -1.1
v 0 2 -0.3
v 0.2 2 -0.3
v 0 2 -0.5
v 0.2 2 -0.5
v 0 2 -0.6
v 0.2 2 -0.6
v 0 2 -0.8
v 0.2 2 -0.8
v 0 2.6 0
v 0.2 2.6 0
v 0 2.6 -0.1
v 0.2 2.6 -0.1
v 0 2.6 -0.2
v 0.2 2.6 -0.2
v 0 2.6 -0.3
v 0.2 2.6 -0.3
v 0 2.6 -0.5
v 0.2 2.6 -0.5
v 0 2.6 -0.6
v 0.2 2.6 -0.6
v 0 2.6 -0.8
v 0.2 2.6 -0.8
v 0 2.6 -0.9
v 0.2 2.6 -0.9
v 0 2.6 -1
v 0.2 2.6 -1
v 0 2.6 -1.1
v 0.2 2.6 -1.1
v 0 3.2 -0.1
v 0.2 3.2 -0.1
v 0 3.2 -0.2
v 0.2 3.2 -0.2
v 0 3.2 -0.9
v 0.2 3.2 -0.9
v 0 3.2 -1
v 0.2 3.2 -1
v 0 3.4 -0.3
v 0.1 3.4 -0.3
v 0.2 3.4 -0.3
v 0 3.4 -0.5
v 0.1 3.4 -0.5
v 0.2 3.4 -0.5
v 0 3.4 -0.6
v 0.1 3.4 -0.6
v 0.2 3.4 -0.6
v 0 3.4 -0.8
v 0.1 3.4 -0.8
v 0.2 3.4 -0.8
v 0 3.8 -0.2
v 0.2 3.8 -0.2
v 0 3.8 -0.3
v 0.1 3.8 -0.3
v 0.2 3.8 -0.3
v 0 3.8 -0.8
v 0.1 3.8 -0.8
v 0.2 3.8 -0.8
v 0 3.8 -0.9
v 0.2 3.8 -0.9
v 0 3.3 0
v 0.2 3.3 0
v 0 3.3 -0.5
v 0.2 3.3 -0.5
v 0 3.3 -0.6
v 0.2 3.3 -0.6
v 0 3.3 -1.1
v 0.2 3.3 -1.1
v 0 3.9 -0.2
v 0.2 3.9 -0.2
v 0 3.9 -0.3
v 0.2 3.9 -0.3
v 0 3.9 -0.8
v 0.2 3.9 -0.8
v 0 3.9 -0.9
v 0.2 3.9 -0.9
v 0 4 -0.4
v 0.2 4 -0.4
v 0 4 -0.5
v 0.2 4 -0.5
v 0 4 -0.7
v 0.2 4 -0.7
v 0 4 -0.8
v 0.2 4 -0.8
v 0 4.1 -0.3
v 0.2 4.1 -0.3
v 0 4.1 -0.4
v 0.2 4.1 -0.4
v 0 4.1 -0.5
v 0.2 4.1 -0.5
v 0 4.1 -0.7
v 0.2 4.1 -0.7

# faces
f 5/2/1 2/2/1 1/2/1
f 6/2/1 2/2/1 5/2/1
f 7/2/1 4/2/1 3/2/1
f 8/2/1 4/2/1 7/2/1
f 9/8/1 6/8/1 5/8/1
f 10/8/1 6/8/1 9/8/1
f 11/8/1 8/8/1 7/8/1
f 12/8/1 8/8/1 11/8/1
f 13/3/1 10/3/1 9/3/1
f 14/3/1 10/3/1 13/3/1
f 15/3/1 12/3/1 11/3/1
f 16/3/1 12/3/1 15/3/1
f 20/5/1 14/5/1 13/5/1
f 21/5/1 14/5/1 20/5/1
f 22/5/1 16/5/1 15/5/1
f 23/5/1 16/5/1 22/5/1
f 27/3/1 18/3/1 17/3/1
f 28/3/1 18/3/1 27/3/1
f 29/3/1 26/3/1 25/3/1
f 30/3/1 26/3/1 29/3/1
f 31/5/1 23/5/1 22/5/1
f 31/5/1 22/5/1 21/5/1
f 31/5/1 21/5/1 20/5/1
f 31/5/1 20/5/1 19/5/1
f 31/5/1 24/5/1 23/5/1
f 32/5/1 24/5/1 31/5/1
f 33/7/1 32/7/1 31/7/1
f 34/7/1 32/7/1 33/7/1
f 35/7/1 33/7/1 31/7/1
f 35/6/1 34/6/1 33/6/1
f 36/7/1 32/7/1 34/7/1
f 36/6/1 34/6/1 35/6/1
f 37/7/1 28/7/1 27/7/1
f 38/7/1 35/7/1 31/7/1
f 38/7/1 36/7/1 35/7/1
f 39/7/1 32/7/1 36/7/1
f 39/7/1 36/7/1 38/7/1
f 40/7/1 30/7/1 29/7/1
f 41/7/1 39/7/1 38/7/1
f 41/7/1 40/7/1 39/7/1
f 41/7/1 38/7/1 37/7/1
f 41/7/1 37/7/1 27/7/1
f 42/7/1 40/7/1 41/7/1
f 43/7/1 40/7/1 42/7/1
f 44/7/1 30/7/1 40/7/1
f 44/7/1 40/7/1 43/7/1
f 46/7/1 43/7/1 42/7/1
f 47/7/1 43/7/1 46/7/1
f 49/4/1 46/4/1 45/4/1
f 50/4/1 46/4/1 49/4/1
f 51/1/1 47/1/1 46/1/1
f 51/4/1 46/4/1 50/4/1
f 52/4/1 48/4/1 47/4/1
f 52/1/1 47/1/1 51/1/1
f 53/4/1 48/4/1 52/4/1
f 54/4/1 48/4/1 53/4/1
f 55/3/1 50/3/1 49/3/1
f 56/4/1 51/4/1 50/4/1
f 56/3/1 50/3/1 55/3/1
f 56/4/1 52/4/1 51/4/1
f 56/4/1 53/4/1 52/4/1
f 57/4/1 53/4/1 56/4/1
f 58/4/1 53/4/1 57/4/1
f 59/3/1 54/3/1 53/3/1
f 59/4/1 53/4/1 58/4/1
f 60/3/1 54/3/1 59/3/1
f 61/11/1 56/11/1 55/11/1
f 61/9/1 57/9/1 56/9/1
f 62/3/1 58/3/1 57/3/1
f 62/9/1 57/9/1 61/9/1
f 63/9/1 60/9/1 59/9/1
f 63/11/1 59/11/1 58/11/1
f 64/9/1 60/9/1 63/9/1
f 66/11/1 61/11/1 55/11/1
f 66/11/1 62/11/1 61/11/1
f 67/3/1 58/3/1 62/3/1
f 67/11/1 62/11/1 66/11/1
f 68/11/1 64/11/1 63/11/1
f 68/3/1 58/3/1 67/3/1
f 68/11/1 63/11/1 58/11/1
f 69/11/1 64/11/1 68/11/1
f 71/10/1 66/10/1 65/10/1
f 72/3/1 69/3/1 68/3/1
f 72/10/1 66/10/1 71/10/1
f 72/3/1 68/3/1 67/3/1
f 72/3/1 67/3/1 66/3/1
f 73/10/1 70/10/1 69/10/1
f 73/3/1 69/3/1 72/3/1
f 74/10/1 70/10/1 73/10/1
f 75/10/1 73/10/1 72/10/1
f 76/10/1 73/10/1 75/10/1
f 77/10/1 73/10/1 76/10/1
f 78/10/1 73/10/1 77/10/1
f 79/10/1 75/10/1 72/10/1
f 80/10/1 75/10/1 79/10/1
f 81/10/1 77/10/1 76/10/1
f 82/10/1 77/10/1 81/10/1
f 83/2/2 84/2/2 87/2/2
f 87/2/2 84/2/2 88/2/2
f 85/2/2 86/2/2 89/2/2
f 89/2/2 86/2/2 90/2/2
f 87/3/2 88/3/2 91/3/2
f 91/3/2 88/3/2 92/3/2
f 89/3/2 90/3/2 93/3/2
f 93/3/2 90/3/2 94/3/2
f 91/5/2 92/5/2 98/5/2
f 98/5/2 92/5/2 99/5/2
f 93/5/2 94/5/2 100/5/2
f 100/5/2 94/5/2 101/5/2
f 95/3/2 96/3/2 105/3/2
f 105/3/2 96/3/2 106/3/2
f 103/3/2 104/3/2 107/3/2
f 107/3/2 104/3/2 108/3/2
f 100/5/2 101/5/2 109/5/2
f 98/5/2 99/5/2 109/5/2
f 99/5/2 100/5/2 109/5/2
f 97/5/2 98/5/2 109/5/2
f 101/5/2 102/5/2 109/5/2
f 109/5/2 102/5/2 110/5/2
f 105/7/2 106/7/2 111/7/2
f 109/7/2 110/7/2 112/7/2
f 112/7/2 110/7/2 113/7/2
f 107/7/2 108/7/2 114/7/2
f 112/7/2 113/7/2 115/7/2
f 113/7/2 114/7/2 115/7/2
f 111/7/2 112/7/2 115/7/2
f 105/7/2 111/7/2 115/7/2
f 115/7/2 114/7/2 116/7/2
f 116/7/2 114/7/2 117/7/2
f 114/7/2 108/7/2 118/7/2
f 117/7/2 114/7/2 118/7/2
f 116/7/2 117/7/2 120/7/2
f 120/7/2 117/7/2 121/7/2
f 119/3/2 120/3/2 124/3/2
f 121/3/2 122/3/2 124/3/2
f 120/3/2 121/3/2 124/3/2
f 124/3/2 122/3/2 125/3/2
f 123/10/2 124/10/2 127/10/2
f 124/3/2 125/3/2 128/3/2
f 127/10/2 124/10/2 128/10/2
f 125/10/2 126/10/2 129/10/2
f 128/3/2 125/3/2 129/3/2
f 129/10/2 126/10/2 130/10/2
f 128/10/2 129/10/2 131/10/2
f 131/10/2 129/10/2 132/10/2
f 132/10/2 129/10/2 133/10/2
f 133/10/2 129/10/2 134/10/2
f 128/10/2 131/10/2 135/10/2
f 135/10/2 131/10/2 136/10/2
f 132/10/2 133/10/2 137/10/2
f 137/10/2 133/10/2 138/10/2
f 142/3/3 140/3/3 139/3/3
f 143/7/3 141/7/3 140/7/3
f 143/3/3 140/3/3 142/3/3
f 144/7/3 141/7/3 143/7/3
f 150/5/3 146/5/3 145/5/3
f 151/7/3 147/7/3 146/7/3
f 151/5/3 146/5/3 150/5/3
f 152/7/3 147/7/3 151/7/3
f 153/10/3 149/10/3 148/10/3
f 154/10/3 149/10/3 153/10/3
f 166/2/3 156/2/3 155/2/3
f 166/8/3 157/8/3 156/8/3
f 167/3/3 158/3/3 157/3/3
f 167/8/3 157/8/3 166/8/3
f 168/4/3 161/4/3 160/4/3
f 169/3/3 162/3/3 161/3/3
f 169/4/3 161/4/3 168/4/3
f 170/11/3 163/11/3 162/11/3
f 170/3/3 162/3/3 169/3/3
f 171/11/3 163/11/3 170/11/3
f 172/2/3 166/2/3 155/2/3
f 172/2/3 167/2/3 166/2/3
f 173/3/3 158/3/3 167/3/3
f 173/2/3 167/2/3 172/2/3
f 174/5/3 159/5/3 158/5/3
f 174/3/3 158/3/3 173/3/3
f 175/5/3 159/5/3 174/5/3
f 176/3/3 169/3/3 168/3/3
f 176/3/3 171/3/3 170/3/3
f 176/3/3 170/3/3 169/3/3
f 177/3/3 171/3/3 176/3/3
f 178/10/3 165/10/3 164/10/3
f 179/10/3 165/10/3 178/10/3
f 184/7/3 181/7/3 180/7/3
f 185/7/3 184/7/3 180/7/3
f 186/7/3 184/7/3 185/7/3
f 187/10/3 183/10/3 182/10/3
f 188/10/3 183/10/3 187/10/3
f 194/2/3 190/2/3 189/2/3
f 194/8/3 191/8/3 190/8/3
f 195/3/3 192/3/3 191/3/3
f 195/8/3 191/8/3 194/8/3
f 196/2/3 194/2/3 189/2/3
f 196/2/3 195/2/3 194/2/3
f 197/3/3 192/3/3 195/3/3
f 197/2/3 195/2/3 196/2/3
f 198/5/3 193/5/3 192/5/3
f 198/3/3 192/3/3 197/3/3
f 199/5/3 193/5/3 198/5/3
f 203/3/3 201/3/3 200/3/3
f 204/7/3 202/7/3 201/7/3
f 204/3/3 201/3/3 203/3/3
f 205/7/3 202/7/3 204/7/3
f 206/3/4 207/3/4 209/3/4
f 207/7/4 208/7/4 210/7/4
f 209/3/4 207/3/4 210/3/4
f 210/7/4 208/7/4 211/7/4
f 212/10/4 213/10/4 214/10/4
f 214/10/4 213/10/4 215/10/4
f 216/2/4 217/2/4 221/2/4
f 217/8/4 218/8/4 221/8/4
f 218/3/4 219/3/4 222/3/4
f 221/8/4 218/8/4 222/8/4
f 216/2/4 221/2/4 223/2/4
f 221/2/4 222/2/4 223/2/4
f 222/3/4 219/3/4 224/3/4
f 223/2/4 222/2/4 224/2/4
f 219/5/4 220/5/4 225/5/4
f 224/3/4 219/3/4 225/3/4
f 225/5/4 220/5/4 226/5/4
f 227/7/4 228/7/4 229/7/4
f 227/7/4 229/7/4 230/7/4
f 230/7/4 229/7/4 231/7/4
f 232/10/4 233/10/4 234/10/4
f 234/10/4 233/10/4 235/10/4
f 236/2/4 237/2/4 248/2/4
f 237/8/4 238/8/4 248/8/4
f 238/3/4 239/3/4 249/3/4
f 248/8/4 238/8/4 249/8/4
f 241/4/4 242/4/4 250/4/4
f 242/3/4 243/3/4 251/3/4
f 250/4/4 242/4/4 251/4/4
f 243/9/4 244/9/4 252/9/4
f 251/3/4 243/3/4 252/3/4
f 244/11/4 245/11/4 253/11/4
f 252/9/4 244/9/4 253/9/4
f 253/11/4 245/11/4 254/11/4
f 236/2/4 248/2/4 255/2/4
f 248/2/4 249/2/4 255/2/4
f 249/3/4 239/3/4 256/3/4
f 255/2/4 249/2/4 256/2/4
f 239/5/4 240/5/4 257/5/4
f 256/3/4 239/3/4 257/3/4
f 257/5/4 240/5/4 258/5/4
f 251/3/4 252/3/4 259/3/4
f 250/3/4 251/3/4 259/3/4
f 253/3/4 254/3/4 259/3/4
f 252/3/4 253/3/4 259/3/4
f 259/3/4 254/3/4 260/3/4
f 246/10/4 247/10/4 261/10/4
f 261/10/4 247/10/4 262/10/4
f 263/5/4 264/5/4 268/5/4
f 264/7/4 265/7/4 269/7/4
f 268/5/4 264/5/4 269/5/4
f 269/7/4 265/7/4 270/7/4
f 266/10/4 267/10/4 271/10/4
f 271/10/4 267/10/4 272/10/4
f 273/3/4 274/3/4 276/3/4
f 274/7/4 275/7/4 277/7/4
f 276/3/4 274/3/4 277/3/4
f 277/7/4 275/7/4 278/7/4
f 281/2/5 280/2/5 279/2/5
f 282/2/5 280/2/5 281/2/5
f 285/2/5 284/2/5 283/2/5
f 286/2/5 284/2/5 285/2/5
f 289/3/5 288/3/5 287/3/5
f 290/3/5 288/3/5 289/3/5
f 293/5/5 292/5/5 291/5/5
f 294/5/5 292/5/5 293/5/5
f 297/5/5 296/5/5 295/5/5
f 298/5/5 296/5/5 297/5/5
f 301/5/5 300/5/5 299/5/5
f 302/5/5 300/5/5 301/5/5
f 305/3/5 304/3/5 303/3/5
f 306/3/5 304/3/5 305/3/5
f 309/7/5 308/7/5 307/7/5
f 310/7/5 308/7/5 309/7/5
f 313/7/5 312/7/5 311/7/5
f 314/7/5 312/7/5 313/7/5
f 318/4/5 316/4/5 315/4/5
f 319/3/5 317/3/5 316/3/5
f 319/4/5 316/4/5 318/4/5
f 320/3/5 317/3/5 319/3/5
f 324/4/5 322/4/5 321/4/5
f 325/3/5 323/3/5 322/3/5
f 325/4/5 322/4/5 324/4/5
f 326/3/5 323/3/5 325/3/5
f 329/10/5 328/10/5 327/10/5
f 330/10/5 328/10/5 329/10/5
f 331/10/5 328/10/5 330/10/5
f 335/10/5 333/10/5 332/10/5
f 335/10/5 334/10/5 333/10/5
f 336/10/5 334/10/5 335/10/5
f 337/7/6 338/7/6 339/7/6
f 339/7/6 338/7/6 340/7/6
f 341/7/6 342/7/6 343/7/6
f 343/7/6 342/7/6 344/7/6
f 345/10/6 346/10/6 347/10/6
f 347/10/6 346/10/6 348/10/6
f 349/10/6 350/10/6 351/10/6
f 351/10/6 350/10/6 352/10/6
f 353/10/6 354/10/6 355/10/6
f 355/10/6 354/10/6 356/10/6
f 357/10/6 358/10/6 359/10/6
f 359/10/6 358/10/6 360/10/6
f 361/10/6 362/10/6 363/10/6
f 363/10/6 362/10/6 364/10/6
f 365/10/6 366/10/6 367/10/6
f 367/10/6 366/10/6 368/10/6
