# shivshank's .obj optimizer

# normals
vn -1 0 0
vn 1 0 0
vn 0 0 1
vn 0 0 -1
vn 0 -1 0
vn 0 1 0

# texcoords
vt 0.279296875 0.5
vt 0.595703125 0.5

# verts
v 5 5 6
v 5 5 5
v 5 4 5
v 5 4 6
v 6 4 6
v 6 4 5
v 6 5 5
v 6 5 6
v 5 5 6
v 5 4 6
v 6 4 6
v 6 5 6
v 5 4 6
v 5 4 5
v 6 4 5
v 6 4 6
v 5 5 5
v 5 5 4
v 5 4 4
v 5 4 5
v 6 4 5
v 6 4 4
v 6 5 4
v 6 5 5
v 5 4 5
v 5 4 4
v 6 4 4
v 6 4 5
v 5 5 2
v 5 5 1
v 5 4 1
v 5 4 2
v 6 4 2
v 6 4 1
v 6 5 1
v 6 5 2
v 5 4 1
v 5 5 1
v 6 5 1
v 6 4 1
v 5 4 2
v 5 4 1
v 6 4 1
v 6 4 2
v 6 5 2
v 6 5 1
v 5 5 1
v 5 5 2
v 5 5 3
v 5 5 2
v 5 4 2
v 5 4 3
v 6 4 3
v 6 4 2
v 6 5 2
v 6 5 3
v 5 4 3
v 5 4 2
v 6 4 2
v 6 4 3
v 6 5 3
v 6 5 2
v 5 5 2
v 5 5 3
v 5 5 4
v 5 5 3
v 5 4 3
v 5 4 4
v 6 4 4
v 6 4 3
v 6 5 3
v 6 5 4
v 5 4 4
v 5 4 3
v 6 4 3
v 6 4 4
v 6 5 4
v 6 5 3
v 5 5 3
v 5 5 4
v 5 6 6
v 5 6 5
v 5 5 5
v 5 5 6
v 6 5 6
v 6 5 5
v 6 6 5
v 6 6 6
v 5 6 6
v 5 5 6
v 6 5 6
v 6 6 6
v 5 6 5
v 5 6 4
v 5 5 4
v 5 5 5
v 6 5 5
v 6 5 4
v 6 6 4
v 6 6 5
v 5 5 4
v 5 6 4
v 6 6 4
v 6 5 4
v 5 7 6
v 5 7 5
v 5 6 5
v 5 6 6
v 6 6 6
v 6 6 5
v 6 7 5
v 6 7 6
v 5 7 6
v 5 6 6
v 6 6 6
v 6 7 6
v 6 7 6
v 6 7 5
v 5 7 5
v 5 7 6
v 5 7 5
v 5 7 4
v 5 6 4
v 5 6 5
v 6 6 5
v 6 6 4
v 6 7 4
v 6 7 5
v 5 6 4
v 5 7 4
v 6 7 4
v 6 6 4
v 6 7 5
v 6 7 4
v 5 7 4
v 5 7 5

# faces
f 1/1/1 2/1/1 3/1/1 4/1/1
f 5/1/2 6/1/2 7/1/2 8/1/2
f 9/1/3 10/1/3 11/1/3 12/1/3
f 13/1/5 14/1/5 15/1/5 16/1/5
f 17/1/1 18/1/1 19/1/1 20/1/1
f 21/1/2 22/1/2 23/1/2 24/1/2
f 25/1/5 26/1/5 27/1/5 28/1/5
f 29/1/1 30/1/1 31/1/1 32/1/1
f 33/1/2 34/1/2 35/1/2 36/1/2
f 37/1/4 38/1/4 39/1/4 40/1/4
f 41/1/5 42/1/5 43/1/5 44/1/5
f 45/1/6 46/1/6 47/1/6 48/1/6
f 49/1/1 50/1/1 51/1/1 52/1/1
f 53/1/2 54/1/2 55/1/2 56/1/2
f 57/1/5 58/1/5 59/1/5 60/1/5
f 61/1/6 62/1/6 63/1/6 64/1/6
f 65/1/1 66/1/1 67/1/1 68/1/1
f 69/1/2 70/1/2 71/1/2 72/1/2
f 73/1/5 74/1/5 75/1/5 76/1/5
f 77/1/6 78/1/6 79/1/6 80/1/6
f 81/2/1 82/2/1 83/2/1 84/2/1
f 85/2/2 86/2/2 87/2/2 88/2/2
f 89/2/3 90/2/3 91/2/3 92/2/3
f 93/2/1 94/2/1 95/2/1 96/2/1
f 97/2/2 98/2/2 99/2/2 100/2/2
f 101/2/4 102/2/4 103/2/4 104/2/4
f 105/2/1 106/2/1 107/2/1 108/2/1
f 109/2/2 110/2/2 111/2/2 112/2/2
f 113/2/3 114/2/3 115/2/3 116/2/3
f 117/2/6 118/2/6 119/2/6 120/2/6
f 121/2/1 122/2/1 123/2/1 124/2/1
f 125/2/2 126/2/2 127/2/2 128/2/2
f 129/2/4 130/2/4 131/2/4 132/2/4
f 133/2/6 134/2/6 135/2/6 136/2/6


